<?xml version="1.0" encoding="UTF-8"?>
<!DOCTYPE svg PUBLIC "-//W3C//DTD SVG 1.1//EN" "http://www.w3.org/Graphics/SVG/1.1/DTD/svg11.dtd">
<svg xmlns="http://www.w3.org/2000/svg" version="1.1" width="7800px" height="4500px" style="shape-rendering:geometricPrecision; text-rendering:geometricPrecision; image-rendering:optimizeQuality; fill-rule:evenodd; clip-rule:evenodd" xmlns:xlink="http://www.w3.org/1999/xlink">
<g><path style="opacity:1" fill="#000000" d="M 3879.5,66.5 C 3916.73,63.8157 3952.4,69.9823 3986.5,85C 4016.2,98.836 4043.53,116.169 4068.5,137C 4681.79,657.958 5294.79,1179.29 5907.5,1701C 5975.17,1758 6042.83,1815 6110.5,1872C 6190.75,1944.43 6214.58,2032.26 6182,2135.5C 6158.68,2195.48 6119.51,2241.98 6064.5,2275C 5993.51,2311.41 5923.17,2310.07 5853.5,2271C 5845.66,2266.25 5838,2261.25 5830.5,2256C 5748.72,2192.56 5668.38,2127.23 5589.5,2060C 5520.54,2001.37 5451.87,1942.37 5383.5,1883C 5022.21,1576.71 4661.21,1270.04 4300.5,963C 4167.67,849.5 4034.83,736 3902,622.5C 3597.5,881.667 3293,1140.83 2988.5,1400C 2657.17,1680 2325.83,1960 1994.5,2240C 1959.24,2266.62 1919.91,2284.62 1876.5,2294C 1813.43,2304.4 1756.77,2290.07 1706.5,2251C 1660.56,2215.05 1628.73,2169.21 1611,2113.5C 1594.54,2048.12 1604.54,1987.12 1641,1930.5C 1656.77,1906.53 1675.27,1884.7 1696.5,1865C 2374.13,1289.71 3051.46,714.042 3728.5,138C 3761.37,110.056 3798.37,89.0556 3839.5,75C 3852.77,71.182 3866.1,68.3486 3879.5,66.5 Z"/></g>
<g><path style="opacity:1" fill="#000000" d="M 4886.5,186.5 C 5019.51,186.243 5152.51,187.41 5285.5,190C 5327.56,193.4 5354.73,215.233 5367,255.5C 5369.88,265.975 5371.54,276.642 5372,287.5C 5372.67,532.5 5372.67,777.5 5372,1022.5C 5170.07,851.452 4968.24,680.285 4766.5,509C 4706.67,459.167 4646.83,409.333 4587,359.5C 4554.57,324.66 4553.24,288.66 4583,251.5C 4598.68,229.153 4618.18,210.986 4641.5,197C 4651.98,192.248 4662.98,190.248 4674.5,191C 4745.32,189.076 4815.99,187.576 4886.5,186.5 Z"/></g>
<g><path style="opacity:1" fill="#000000" d="M 3901.5,842.5 C 3902.55,842.351 3903.55,842.517 3904.5,843C 4067.02,981.43 4229.35,1120.1 4391.5,1259C 4641.46,1470.62 4891.13,1682.62 5140.5,1895C 5285.63,2017.13 5431.63,2138.13 5578.5,2258C 5627.89,2302.3 5654.06,2357.8 5657,2424.5C 5658.71,2466.67 5658.55,2508.84 5656.5,2551C 5657.26,2573.16 5657.76,2595.32 5658,2617.5C 5658.67,2724.17 5658.67,2830.83 5658,2937.5C 5655.08,3122.16 5652.75,3306.83 5651,3491.5C 5650.32,3775.52 5649.32,4059.52 5648,4343.5C 5645.19,4375.65 5630.69,4400.81 5604.5,4419C 5592.01,4425.94 5578.68,4430.27 5564.5,4432C 5478.34,4433.13 5392.17,4433.63 5306,4433.5C 5003.83,4433.05 4701.66,4431.88 4399.5,4430C 4394.33,4426.17 4389.17,4422.33 4384,4418.5C 4383.67,3967.17 4383.33,3515.83 4383,3064.5C 4383.31,3038.42 4377.64,3013.75 4366,2990.5C 4351.77,2969.29 4331.94,2956.45 4306.5,2952C 4296.26,2949.93 4285.93,2948.6 4275.5,2948C 4030.16,2947.7 3784.83,2948.7 3539.5,2951C 3520.24,2951.29 3501.24,2953.63 3482.5,2958C 3445.59,2968.59 3424.76,2993.09 3420,3031.5C 3418.51,3040.11 3417.51,3048.78 3417,3057.5C 3416.68,3515.17 3416.85,3972.83 3417.5,4430.5C 3400.82,4432.19 3384.16,4434.02 3367.5,4436C 3000.5,4436.67 2633.5,4436.67 2266.5,4436C 2245.81,4435.33 2225.81,4431.33 2206.5,4424C 2180.16,4411.86 2163.33,4391.69 2156,4363.5C 2152.81,4351.36 2150.81,4339.03 2150,4326.5C 2150.57,3906.83 2150.9,3487.17 2151,3067.5C 2149.94,2849.14 2147.11,2630.81 2142.5,2412.5C 2140.2,2370.25 2152.36,2332.91 2179,2300.5C 2186.5,2291.67 2194.67,2283.5 2203.5,2276C 2380.71,2129.8 2557.04,1982.46 2732.5,1834C 3122.95,1504.39 3512.61,1173.89 3901.5,842.5 Z"/></g>
</svg>
