<?xml version="1.0" encoding="UTF-8"?>
<svg version="1.1" xmlns="http://www.w3.org/2000/svg" width="665" height="234">
<path d="M0 0 C219.45 0 438.9 0 665 0 C665 77.22 665 154.44 665 234 C445.55 234 226.1 234 0 234 C0 156.78 0 79.56 0 0 Z " fill="#FEFEFE" transform="translate(0,0)"/>
<path d="M0 0 C175.56 0 351.12 0 532 0 C532 38.61 532 77.22 532 117 C356.44 117 180.88 117 0 117 C0 78.39 0 39.78 0 0 Z " fill="#FBFBFB" transform="translate(67,59)"/>
<path d="M0 0 C175.56 0 351.12 0 532 0 C532 38.61 532 77.22 532 117 C356.44 117 180.88 117 0 117 C0 78.39 0 39.78 0 0 Z M134 3 C134 39.63 134 76.26 134 114 C264.35 114 394.7 114 529 114 C529 77.37 529 40.74 529 3 C398.65 3 268.3 3 134 3 Z " fill="#080808" transform="translate(67,59)"/>
<path d="M0 0 C7.05896143 4.06425052 10.11451782 11.47476415 12.20703125 19.0078125 C15.63418574 35.13269765 15.03509991 53.25385942 7.48046875 68.0390625 C4.4712196 72.42726781 0.82112525 75.01059459 -4.25 76.5625 C-9.45221668 77.21372363 -13.86392639 77.22986877 -18.625 74.9375 C-27.55132968 66.86129695 -30.68249721 57.17939838 -31.39013672 45.18774414 C-32.52719943 15.13478065 -32.52719943 15.13478065 -22.87109375 4.08203125 C-16.26582134 -2.10941687 -8.5251646 -3.53720979 0 0 Z " fill="#FBFBFB" transform="translate(326.25,79.4375)"/>
<path d="M0 0 C9.32161405 8.62074082 10.80070073 18.71864594 11.2734375 30.8203125 C11.59271933 44.94547434 11.87440311 58.34178157 2.4375 69.8125 C-0.55422865 72.94241473 -3.19167282 74.78676693 -7.55078125 75.30078125 C-14.07236868 75.32845418 -19.64385266 75.2345478 -24.6171875 70.44140625 C-32.77717241 60.67784221 -33.60722476 49.04096701 -33.375 36.8125 C-33.37371094 35.51119141 -33.37242187 34.20988281 -33.37109375 32.86914062 C-33.26713087 21.48520551 -32.37829555 10.82162999 -24.2578125 2.13671875 C-17.38747823 -4.04068481 -7.91342122 -5.45146795 0 0 Z " fill="#FCFCFC" transform="translate(557,81)"/>
<path d="M0 0 C5.94072787 -0.0746515 11.8811773 -0.12883772 17.82226562 -0.16479492 C19.83956667 -0.17979884 21.85683556 -0.20020855 23.87402344 -0.22631836 C26.78849263 -0.26307353 29.70252726 -0.27981068 32.6171875 -0.29296875 C33.95062698 -0.31619453 33.95062698 -0.31619453 35.31100464 -0.33988953 C42.70400715 -0.34183713 49.57892963 0.8891268 55.9375 4.8125 C59.96899429 9.08832728 61.19382728 12.69459589 61.375 18.5 C61.21403498 23.06893024 60.84239958 26.26935055 58 30 C53.18284467 33.86479818 47.80049745 36.03197408 42 38 C42.73605469 38.1959375 43.47210938 38.391875 44.23046875 38.59375 C45.20628906 38.8928125 46.18210937 39.191875 47.1875 39.5 C48.15042969 39.7784375 49.11335938 40.056875 50.10546875 40.34375 C54.28205795 42.73359321 56.15970721 45.59055056 58 50 C58.90655957 53.91376006 59.32506208 57.81554471 59.6875 61.8125 C59.89277121 63.86138719 60.10471076 65.90962039 60.32421875 67.95703125 C60.40760498 68.85397705 60.49099121 69.75092285 60.5769043 70.67504883 C60.88911772 73.26350745 60.88911772 73.26350745 63 76 C64.97747122 76.36297936 64.97747122 76.36297936 67.125 76.1875 C68.40375 76.125625 69.6825 76.06375 71 76 C71 76.66 71 77.32 71 78 C66.03059333 80.48470333 58.05033104 79.9854064 52.84765625 78.3046875 C48.50125449 75.31860996 47.67350412 70.43748438 46.640625 65.609375 C46.16580281 62.93415729 45.71912836 60.26162589 45.296875 57.578125 C45.11257935 56.44165527 45.11257935 56.44165527 44.92456055 55.28222656 C44.68732528 53.78682856 44.46679146 52.28866336 44.26489258 50.78808594 C43.48971691 45.75441695 42.84908376 44.84908376 39 41 C33.72 40.34 28.44 39.68 23 39 C23 51.21 23 63.42 23 76 C26.63 76 30.26 76 34 76 C34 76.66 34 77.32 34 78 C22.78 78 11.56 78 0 78 C0 77.34 0 76.68 0 76 C3.63 76 7.26 76 11 76 C11 51.58 11 27.16 11 2 C7.37 2 3.74 2 0 2 C0 1.34 0 0.68 0 0 Z " fill="#151515" transform="translate(360,78)"/>
<path d="M0 0 C5.61925232 -0.09982274 11.23797418 -0.1719136 16.85791016 -0.21972656 C18.76457729 -0.23968492 20.67118448 -0.2668616 22.57763672 -0.30175781 C47.726299 -0.75013459 47.726299 -0.75013459 55.30175781 6.07324219 C59.9870077 11.17096876 61.18257665 14.27516746 61.3125 21.25 C61.36857422 23.20679688 61.36857422 23.20679688 61.42578125 25.203125 C60.83268206 30.49204621 58.56866143 33.43133857 54.875 37.125 C44.65434166 43.79064674 35.92535631 43.35598079 24 43 C23.67 53.89 23.34 64.78 23 76 C26.63 76 30.26 76 34 76 C34 76.66 34 77.32 34 78 C22.78 78 11.56 78 0 78 C0 77.34 0 76.68 0 76 C3.63 76 7.26 76 11 76 C11 51.58 11 27.16 11 2 C7.37 2 3.74 2 0 2 C0 1.34 0 0.68 0 0 Z " fill="#050505" transform="translate(211,78)"/>
<path d="M0 0 C11.55 0 23.1 0 35 0 C35 0.66 35 1.32 35 2 C32.03 2 29.06 2 26 2 C26.03824502 9.38984685 26.09787593 16.77920667 26.18390274 24.16866112 C26.22320773 27.60090259 26.25547819 31.03289405 26.27099609 34.46533203 C26.28920838 38.42252691 26.33923374 42.37902937 26.390625 46.3359375 C26.39185364 47.55300385 26.39308228 48.77007019 26.39434814 50.02401733 C26.53719141 58.43039472 27.40724541 66.31742654 33.5 72.5625 C38.36396862 75.35928196 43.49230682 75.65115584 49 75 C54.3031949 73.28508285 57.97936384 70.76331086 61 66 C62.7407632 62.30260349 63.25215713 59.39844963 63.25878906 55.32348633 C63.26509338 54.20915726 63.27139771 53.09482819 63.27789307 51.94673157 C63.2738446 50.75388046 63.26979614 49.56102936 63.265625 48.33203125 C63.26753845 47.10087082 63.2694519 45.86971039 63.27142334 44.60124207 C63.27278282 42.00312088 63.26910295 39.40499285 63.26074219 36.80688477 C63.25356548 34.13829225 63.25163661 31.47050526 63.26074219 28.80200195 C63.27305361 24.95776173 63.27161364 21.11378204 63.265625 17.26953125 C63.26967346 16.07060745 63.27372192 14.87168365 63.27789307 13.63642883 C63.27158875 12.53155624 63.26528442 11.42668365 63.25878906 10.28833008 C63.25719788 9.31301834 63.25560669 8.3377066 63.25396729 7.33283997 C63.22553368 4.80791662 63.22553368 4.80791662 61 3 C59.01178687 2.60235737 57.01055661 2.26224651 55 2 C55 1.34 55 0.68 55 0 C62.26 0 69.52 0 77 0 C77 0.66 77 1.32 77 2 C75.865625 2.28875 74.73125 2.5775 73.5625 2.875 C71.7990625 3.431875 71.7990625 3.431875 70 4 C68.75788839 6.48422321 68.86212485 8.17019815 68.84228516 10.94946289 C68.82689194 12.49731224 68.82689194 12.49731224 68.81118774 14.07643127 C68.80388641 15.19718552 68.79658508 16.31793976 68.7890625 17.47265625 C68.76097821 19.84050152 68.73231365 22.20833996 68.703125 24.57617188 C68.66197139 28.31306657 68.62508966 32.04983602 68.59863281 35.78686523 C68.57089789 39.39073167 68.52500706 42.99401642 68.4765625 46.59765625 C68.47330963 47.70424088 68.47005676 48.8108255 68.46670532 49.95094299 C68.32469825 58.98548475 67.07638207 66.70495479 60.7421875 73.49609375 C52.51359098 80.59925442 42.37245485 80.64539719 32 80 C23.44110822 78.31790566 17.13390327 74.07646126 12 67 C8.24923247 60.39547329 8.61332808 54.08789199 8.70703125 46.62890625 C8.71127609 45.35144028 8.71552094 44.0739743 8.71989441 42.75779724 C8.7337955 39.38251703 8.7606885 36.00785948 8.79400635 32.63275146 C8.82484679 29.18035221 8.8384294 25.7278883 8.85351562 22.27539062 C8.88652675 15.51675674 8.93668339 8.75841427 9 2 C6.03 2 3.06 2 0 2 C0 1.34 0 0.68 0 0 Z " fill="#F9F9F9" transform="translate(85,78)"/>
<path d="M0 0 C10.74730317 6.57120822 17.71688359 15.00934654 21.640625 27.06640625 C24.18885802 40.65698235 21.24989897 53.65189465 14.05078125 65.25390625 C8.74063325 72.10337731 2.47642665 76.95297142 -5.94921875 79.25390625 C-14.85888006 80.34900782 -23.33155397 79.80964515 -30.58203125 74.2265625 C-36.32375262 69.19627891 -41.22371795 64.14450723 -44.63671875 57.25390625 C-45.05308594 56.42890625 -45.46945312 55.60390625 -45.8984375 54.75390625 C-49.80102809 45.46893235 -49.52263436 31.50239586 -46.32421875 22.06640625 C-44.19886417 17.24147849 -41.4202222 13.20280148 -37.94921875 9.25390625 C-37.43617188 8.63644531 -36.923125 8.01898438 -36.39453125 7.3828125 C-27.1264204 -2.9274065 -12.56431124 -6.59224374 0 0 Z M-27.13671875 5.37890625 C-34.67483633 14.9124079 -35.17427234 25.11161473 -35.24438477 36.86474609 C-35.26149386 38.85277487 -35.30537473 40.84051477 -35.34960938 42.828125 C-35.42093502 53.7903284 -33.79227485 64.0494349 -26.56640625 72.6953125 C-22.40122002 76.70958619 -17.95439768 77.442445 -12.38671875 77.69140625 C-6.50298621 77.4904591 -3.52184302 75.89133214 0.6015625 71.6640625 C11.10855347 59.33203588 10.13289051 42.49570883 9.05078125 27.25390625 C7.80653518 16.81515637 5.4728305 8.20209688 -2.94921875 1.25390625 C-10.88525319 -3.37544718 -21.05943498 -1.16936702 -27.13671875 5.37890625 Z " fill="#090909" transform="translate(558.94921875,78.74609375)"/>
<path d="M0 0 C9.60898654 6.50019678 15.13811414 14.93387366 18.7890625 25.88671875 C19.97238644 40.70516175 18.92283139 53.68176993 9.7890625 65.88671875 C3.50354836 72.87062335 -3.17483587 77.07812229 -12.53515625 78.33203125 C-22.31894675 78.82714056 -29.6562921 76.26712845 -37.3359375 70.2109375 C-45.72975591 62.34173274 -51.1800335 51.60429135 -51.68603516 40.06689453 C-51.8532143 26.26969821 -47.74887301 15.03583822 -38.33203125 4.85546875 C-27.42649432 -5.54334626 -13.16474498 -7.45075936 0 0 Z M-30.4609375 4.26171875 C-40.18308782 18.84494423 -40.2486376 37.99806108 -36.9609375 54.76171875 C-34.66418733 63.67225875 -31.80835867 69.4787022 -24.2109375 74.88671875 C-19.737884 77.1232455 -13.66132351 76.50453328 -8.91796875 75.30859375 C-2.30129011 72.49298582 0.98352262 66.83311307 3.8828125 60.49609375 C9.07442001 45.54784455 8.88054134 24.49649203 2.46484375 9.8671875 C-0.99417125 3.66638108 -4.39341661 0.15922571 -11.2109375 -2.11328125 C-19.39271488 -2.98581345 -24.65468897 -1.86709914 -30.4609375 4.26171875 Z " fill="#090909" transform="translate(333.2109375,80.11328125)"/>
<path d="M0 0 C22.44 0 44.88 0 68 0 C68 7.59 68 15.18 68 23 C67.34 23 66.68 23 66 23 C65.84144531 21.96359375 65.68289063 20.9271875 65.51953125 19.859375 C65.2849458 18.48939596 65.04920777 17.11961393 64.8125 15.75 C64.71130859 15.06808594 64.61011719 14.38617188 64.50585938 13.68359375 C63.51695657 8.17781059 62.77615163 7.8209213 58 4 C52.06 3.34 46.12 2.68 40 2 C40 26.42 40 50.84 40 76 C43.63 76 47.26 76 51 76 C51 76.66 51 77.32 51 78 C39.78 78 28.56 78 17 78 C17 77.34 17 76.68 17 76 C20.63 76 24.26 76 28 76 C28 51.58 28 27.16 28 2 C16.23401541 2.31632978 16.23401541 2.31632978 6 6 C2.18200333 10.92644731 2.31062093 16.98038059 2 23 C1.34 23 0.68 23 0 23 C0 15.41 0 7.82 0 0 Z " fill="#030303" transform="translate(435,78)"/>
<path d="M0 0 C16.80462725 0 16.80462725 0 22.59375 5.51953125 C26.83086561 10.92185365 26.52338931 16.78904569 26.46875 23.4140625 C25.80133641 28.51977649 24.1239742 32.60138467 20 35.8125 C15.8071802 38.86976443 13.00502513 39.13731476 7.9375 39.125 C6.87402344 39.12757812 5.81054688 39.13015625 4.71484375 39.1328125 C2 39 2 39 0 38 C0 25.46 0 12.92 0 0 Z " fill="#FCFCFC" transform="translate(234,80)"/>
<path d="M0 0 C3.3 0 6.6 0 10 0 C10.85472593 25.00755316 11.1319689 49.97869589 11 75 C14.63 75 18.26 75 22 75 C22 75.66 22 76.32 22 77 C10.78 77 -0.44 77 -12 77 C-12 76.34 -12 75.68 -12 75 C-8.04 75 -4.08 75 0 75 C0 50.25 0 25.5 0 0 Z " fill="#050505" transform="translate(372,79)"/>
<path d="M0 0 C17.08090615 0 17.08090615 0 22 4 C26.18146873 9.39544352 26.61527974 15.37735257 26 22 C24.37654755 27.21213683 22.60072209 30.04239294 18 33 C13 35 13 35 0 35 C0 23.45 0 11.9 0 0 Z " fill="#FCFCFC" transform="translate(383,80)"/>
<path d="M0 0 C5.93964087 0.80293239 8.84114904 3.9312029 13 8 C13.55171875 8.52722656 14.1034375 9.05445312 14.671875 9.59765625 C22.93811927 18.26869083 24.65773278 28.21884849 24.453125 39.77172852 C23.95380985 52.41664457 19.83533399 62.74579568 10.5 71.5625 C7.1060576 74.41662754 4.58714755 76 0 76 C0.556875 75.05125 1.11375 74.1025 1.6875 73.125 C2.45861804 71.75015965 3.22942376 70.3751441 4 69 C4.43183594 68.27425781 4.86367188 67.54851562 5.30859375 66.80078125 C13.34327816 52.37649618 12.54088551 33.20439511 9.05859375 17.42578125 C7.49299791 12.35925891 4.96871543 8.34143622 2 4 C1.31068057 2.67823567 0.63605951 1.3482027 0 0 Z " fill="#060606" transform="translate(328,79)"/>
<path d="M0 0 C5.61925232 -0.09982274 11.23797418 -0.1719136 16.85791016 -0.21972656 C18.76457729 -0.23968492 20.67118448 -0.2668616 22.57763672 -0.30175781 C47.726299 -0.75013459 47.726299 -0.75013459 55.30175781 6.07324219 C59.9870077 11.17096876 61.18257665 14.27516746 61.3125 21.25 C61.36857422 23.20679688 61.36857422 23.20679688 61.42578125 25.203125 C60.83268206 30.49204621 58.56866143 33.43133857 54.875 37.125 C44.83124049 43.67527794 35.61481344 43.45548288 24 43 C27.39664192 40.73557205 29.3017941 40.60846221 33.3125 40.1875 C39.18187107 39.35088586 42.12692585 38.50114022 46 34 C49.15391343 27.75833915 48.6909405 20.78705096 48 14 C46.42457608 9.22449624 44.18970376 6.76835034 40 4.0625 C34.58751555 2.49502852 34.58751555 2.49502852 23 2 C23 14.21 23 26.42 23 39 C22.67 39 22.34 39 22 39 C22 26.46 22 13.92 22 1 C18.7 1 15.4 1 12 1 C12 25.75 12 50.5 12 76 C11.67 76 11.34 76 11 76 C11 51.58 11 27.16 11 2 C7.37 2 3.74 2 0 2 C0 1.34 0 0.68 0 0 Z " fill="#151515" transform="translate(211,78)"/>
<path d="M0 0 C6.02069994 0.26758666 10.30705844 0.86574196 15 5 C18.57259793 10.50589906 18.8909368 16.31758397 19.5625 22.6875 C19.78567164 24.75470707 20.01583007 26.82117515 20.25390625 28.88671875 C20.35002197 29.79639404 20.4461377 30.70606934 20.54516602 31.64331055 C20.89197872 34.25719194 20.89197872 34.25719194 23 37 C24.97747122 37.36297936 24.97747122 37.36297936 27.125 37.1875 C28.40375 37.125625 29.6825 37.06375 31 37 C31 37.66 31 38.32 31 39 C26.03059333 41.48470333 18.05033104 40.9854064 12.84765625 39.3046875 C8.5026711 36.3195832 7.67261332 31.44105847 6.64453125 26.61328125 C6.16501968 23.92511033 5.70453349 21.23718915 5.26171875 18.54296875 C5.13434326 17.78081055 5.00696777 17.01865234 4.87573242 16.23339844 C4.628805 14.72455795 4.39546499 13.21341924 4.17700195 11.70019531 C3.55956171 7.79019279 3.03890564 5.57462839 0 3 C0 2.01 0 1.02 0 0 Z " fill="#090909" transform="translate(400,117)"/>
<path d="M0 0 C22.44 0 44.88 0 68 0 C68 7.59 68 15.18 68 23 C67.34 23 66.68 23 66 23 C65.84144531 21.96359375 65.68289063 20.9271875 65.51953125 19.859375 C65.2849458 18.48939596 65.04920777 17.11961393 64.8125 15.75 C64.71130859 15.06808594 64.61011719 14.38617188 64.50585938 13.68359375 C63.51695657 8.17781059 62.77615163 7.8209213 58 4 C52.06 3.34 46.12 2.68 40 2 C40 26.42 40 50.84 40 76 C43.63 76 47.26 76 51 76 C51 76.33 51 76.66 51 77 C47.04 77 43.08 77 39 77 C39 51.92 39 26.84 39 1 C16.49437047 1.64586873 16.49437047 1.64586873 6 6 C2.18200333 10.92644731 2.31062093 16.98038059 2 23 C1.34 23 0.68 23 0 23 C0 15.41 0 7.82 0 0 Z " fill="#363636" transform="translate(435,78)"/>
<path d="M0 0 C4.10238116 1.34259747 5.44380003 2.30374172 7.4375 6.125 C7.4375 9.90410616 7.27039714 12.13193033 4.8125 15.0625 C1.46067947 16.56199866 -0.93230218 16.57877473 -4.5625 16.125 C-7 14.5625 -7 14.5625 -8.5625 12.125 C-9.28718526 7.69636786 -9.05704049 5.84433162 -6.5 2.125 C-3.5625 0.125 -3.5625 0.125 0 0 Z " fill="#F3F3F3" transform="translate(174.5625,140.875)"/>
<path d="M0 0 C3.63 0 7.26 0 11 0 C11 7.26 11 14.52 11 22 C10.67 22 10.34 22 10 22 C9.79697266 20.46279297 9.79697266 20.46279297 9.58984375 18.89453125 C8.69241231 11.40950398 8.69241231 11.40950398 5.2421875 4.9609375 C3.13870819 3.52114288 3.13870819 3.52114288 0 2 C0 1.34 0 0.68 0 0 Z " fill="#0B0B0B" transform="translate(491,79)"/>
<path d="M0 0 C4.7025 0.0309375 4.7025 0.0309375 9.5 0.0625 C9.5 7.6525 9.5 15.2425 9.5 23.0625 C9.17 23.0625 8.84 23.0625 8.5 23.0625 C8.5 15.8025 8.5 8.5425 8.5 1.0625 C4.87 1.0625 1.24 1.0625 -2.5 1.0625 C-2.5 1.7225 -2.5 2.3825 -2.5 3.0625 C-7.78 2.7325 -13.06 2.4025 -18.5 2.0625 C-18.5 1.7325 -18.5 1.4025 -18.5 1.0625 C-12.28883241 0.14098331 -6.27244363 -0.05879115 0 0 Z " fill="#282828" transform="translate(493.5,77.9375)"/>
<path d="M0 0 C0 1.32 0 2.64 0 4 C-0.66 4 -1.32 4 -2 4 C-2.33 4.66 -2.66 5.32 -3 6 C-8.28 5.34 -13.56 4.68 -19 4 C-19 3.34 -19 2.68 -19 2 C-17.64455078 1.90912109 -17.64455078 1.90912109 -16.26171875 1.81640625 C-14.49248047 1.69072266 -14.49248047 1.69072266 -12.6875 1.5625 C-10.92986328 1.44068359 -10.92986328 1.44068359 -9.13671875 1.31640625 C-5.90126834 0.99004077 -3.25596901 0 0 0 Z " fill="#191919" transform="translate(402,113)"/>
<path d="M0 0 C2 1 2 1 3 3 C-1.62369023 4.80679587 -5.42528653 5.21839082 -10.375 5.125 C-11.62023437 5.10695312 -12.86546875 5.08890625 -14.1484375 5.0703125 C-15.55996094 5.03550781 -15.55996094 5.03550781 -17 5 C-17 4.67 -17 4.34 -17 4 C-15.94039063 3.79503906 -14.88078125 3.59007812 -13.7890625 3.37890625 C-12.40101178 3.10692334 -11.01299256 2.83477956 -9.625 2.5625 C-8.92632812 2.42779297 -8.22765625 2.29308594 -7.5078125 2.15429688 C-3.64371266 1.4227578 -3.64371266 1.4227578 0 0 Z " fill="#2B2B2B" transform="translate(327,153)"/>
<path d="M0 0 C2.0622048 -0.054348 4.12482816 -0.09294961 6.1875 -0.125 C7.33605469 -0.14820312 8.48460937 -0.17140625 9.66796875 -0.1953125 C12.91740372 -0.00484152 15.08660521 0.60639873 18 2 C17.01 3.485 17.01 3.485 16 5 C15.43152344 4.79503906 14.86304688 4.59007813 14.27734375 4.37890625 C9.4915546 2.70907331 5.04056799 1.53623064 0 1 C0 0.67 0 0.34 0 0 Z " fill="#373737" transform="translate(311,76)"/>
<path d="M0 0 C2.70583756 0.25560029 5.37210774 0.56759978 8.0625 0.9375 C9.20041992 1.08735352 9.20041992 1.08735352 10.36132812 1.24023438 C12.24154246 1.48856457 14.12086128 1.74365751 16 2 C16 2.33 16 2.66 16 3 C13.91695462 3.05418326 11.83350232 3.09287551 9.75 3.125 C8.00976562 3.15980469 8.00976562 3.15980469 6.234375 3.1953125 C3.17213954 3.0103949 1.55797249 2.60823023 -1 1 C-0.67 0.67 -0.34 0.34 0 0 Z " fill="#282828" transform="translate(537,155)"/>
<path d="M0 0 C-0.33 0.66 -0.66 1.32 -1 2 C-5.95 2 -10.9 2 -16 2 C-12.8989862 -0.06734253 -11.59827423 -0.36087094 -8 -0.6875 C-6.700625 -0.81705078 -6.700625 -0.81705078 -5.375 -0.94921875 C-3 -1 -3 -1 0 0 Z " fill="#2D2D2D" transform="translate(251,119)"/>
<path d="M0 0 C0.79921875 0.00902344 1.5984375 0.01804687 2.421875 0.02734375 C3.02515625 0.03894531 3.6284375 0.05054687 4.25 0.0625 C4.25 0.3925 4.25 0.7225 4.25 1.0625 C3.64671875 1.18367188 3.0434375 1.30484375 2.421875 1.4296875 C1.62265625 1.59726563 0.8234375 1.76484375 0 1.9375 C-0.78890625 2.09992188 -1.5778125 2.26234375 -2.390625 2.4296875 C-4.71831144 3.05400075 -6.64031952 3.91088542 -8.75 5.0625 C-8.75 3.7425 -8.75 2.4225 -8.75 1.0625 C-5.75519083 0.1901588 -3.11424089 -0.04579766 0 0 Z " fill="#101010" transform="translate(313.75,76.9375)"/>
</svg>
