<svg version="1.1" id="Layer_1" xmlns="http://www.w3.org/2000/svg" xmlns:xlink="http://www.w3.org/1999/xlink" x="0px" y="0px"
	 width="100%" viewBox="0 0 400 400" enable-background="new 0 0 400 400" xml:space="preserve">
<path fill="#FFFFFF" opacity="1.000000" stroke="none" 
	d="
M269.000000,401.000000 
	C179.361191,401.000000 90.222389,401.000000 1.041790,401.000000 
	C1.041790,267.736206 1.041790,134.472382 1.041790,1.104279 
	C134.222092,1.104279 267.444275,1.104279 400.833252,1.104279 
	C400.833252,134.333160 400.833252,267.666565 400.833252,401.000000 
	C357.139130,401.000000 313.319550,401.000000 269.000000,401.000000 
M223.000000,302.000000 
	C223.000000,302.000000 222.998779,301.998779 222.332001,302.000153 
	C221.887802,302.000916 221.443588,302.001678 220.487457,302.219940 
	C219.761230,302.793915 219.035004,303.367889 217.910126,303.414978 
	C216.650116,303.219940 215.390106,303.024902 213.867249,302.082031 
	C212.738373,301.949036 211.608505,301.750763 210.481903,301.767761 
	C210.344940,301.769836 210.225464,302.930664 210.097870,303.554474 
	C211.093399,303.692719 212.088913,303.830963 213.783890,304.472961 
	C213.774063,312.978729 213.764236,321.484497 213.038620,329.990875 
	C212.018295,330.653046 210.997971,331.315247 209.509003,332.412781 
	C213.062225,336.234039 216.998642,338.198761 222.692627,335.060303 
	C223.795074,335.373138 224.897537,335.685974 226.370010,336.669403 
	C226.888885,337.048340 227.418655,337.770447 227.925003,337.754395 
	C234.689056,337.539886 241.455811,337.302826 248.202179,336.804535 
	C248.873184,336.754974 249.415024,334.956696 250.766998,333.789093 
	C251.795120,333.761078 252.823257,333.733093 254.510788,333.978485 
	C255.453918,334.072601 256.397064,334.166718 257.190735,335.009186 
	C257.733185,335.603424 258.275665,336.197693 258.818115,336.791931 
	C258.742218,335.951080 258.666290,335.110199 258.754120,333.798889 
	C258.213715,333.390778 257.673309,332.982666 256.981262,331.961121 
	C256.257141,331.297607 255.533051,330.634094 254.539642,329.092377 
	C254.672516,320.704559 254.805389,312.316711 255.751724,304.027924 
	C256.843719,304.046600 257.935730,304.065247 259.441132,304.617798 
	C260.882111,306.905182 262.323120,309.192566 263.841888,311.603424 
	C265.450867,311.443695 267.677338,311.222687 269.892548,311.769714 
	C269.469879,313.508545 269.047211,315.247375 268.109863,317.085144 
	C268.273407,317.728516 268.436951,318.371887 268.821167,319.784241 
	C269.269958,321.835602 269.718750,323.886993 269.651306,326.285736 
	C270.194275,326.820770 270.737244,327.355774 271.784088,328.251038 
	C272.857147,329.485931 273.930206,330.720825 274.995056,332.788116 
	C275.078125,334.890625 274.558594,337.729553 278.142395,336.718475 
	C281.043640,335.899963 283.778534,334.491760 286.587219,333.345123 
	C286.595856,333.769958 286.604462,334.194794 286.613098,334.619659 
	C288.817505,334.763123 291.061188,335.200287 293.208099,334.913483 
	C294.137939,334.789246 294.868286,333.172119 295.689240,332.233124 
	C294.610596,331.426880 293.531952,330.620667 292.771667,329.148865 
	C297.263519,323.189331 297.156921,316.747681 295.358337,310.005524 
	C295.729919,308.579681 296.101471,307.153809 296.708801,304.823242 
	C294.509521,305.859436 293.484222,306.342499 292.397278,306.786469 
	C292.397278,306.786469 292.362671,306.722168 292.671234,305.889740 
	C291.977234,304.508392 291.624146,302.399994 290.524231,301.884247 
	C287.424957,300.430878 284.018799,299.632019 281.284180,298.752319 
	C279.368927,300.985199 277.699799,302.931152 275.375244,304.965088 
	C274.945892,305.065094 274.516571,305.165100 274.036957,304.499054 
	C273.253693,303.433624 272.690979,301.954132 271.638733,301.393738 
	C269.766113,300.396362 267.597198,299.955231 265.168152,299.154907 
	C263.883820,301.688812 261.866577,303.169189 258.626678,300.354370 
	C258.373779,300.134674 256.256226,302.061249 254.170975,303.055145 
	C252.782059,302.980469 251.393158,302.905792 249.913544,302.143066 
	C249.198669,298.761383 246.834473,298.758636 244.871170,300.403229 
	C242.112503,302.714081 240.005219,301.966888 237.377869,300.370209 
	C235.395325,299.165375 233.026672,298.595917 230.026779,297.432129 
	C230.489426,300.708313 230.758408,302.613129 230.214600,304.221039 
	C228.798447,304.142395 227.382294,304.063782 225.492523,303.643005 
	C225.329300,303.094940 225.166077,302.546844 224.924606,301.400787 
	C224.516708,301.081146 224.108810,300.761475 223.700897,300.441833 
	C223.466858,300.960815 223.232819,301.479797 223.000000,302.000000 
M264.992889,267.047882 
	C264.992889,267.047882 265.053406,267.075531 265.794830,267.036835 
	C268.112854,265.863770 270.613647,264.934082 272.659088,263.398010 
	C273.478882,262.782410 273.296722,260.832642 273.570587,259.490143 
	C272.283844,259.253021 270.808624,258.489624 269.743500,258.871185 
	C265.457306,260.406555 261.297943,262.295868 257.026825,264.015015 
	C257.026825,264.015015 257.042084,264.089355 256.197601,264.030426 
	C245.921799,266.014923 235.498459,267.582703 225.252060,264.868561 
	C218.007202,262.949524 211.141663,259.598358 203.992401,256.947266 
	C203.992401,256.947266 204.110107,256.902405 203.977066,256.228546 
	C202.702637,255.433090 201.428207,254.637619 200.010101,253.998779 
	C200.010101,253.998779 200.149811,253.842529 200.052200,253.165649 
	C192.963211,245.139359 187.743439,236.004288 183.959076,225.353104 
	C183.878662,224.915314 183.798248,224.477509 183.808380,223.461746 
	C183.368652,222.886597 182.928925,222.311447 182.424957,221.177917 
	C182.362701,220.808502 182.300446,220.439072 182.596786,219.482864 
	C181.699661,212.995483 180.802536,206.508102 179.963882,199.354294 
	C179.931824,198.910156 179.899765,198.466003 179.978851,197.255371 
	C179.744095,195.795746 179.509354,194.336121 179.269257,192.095398 
	C179.454605,189.717285 179.639969,187.339188 179.973007,184.082092 
	C180.881836,176.374435 181.790649,168.666763 182.877182,160.312805 
	C182.892883,159.867081 182.908585,159.421371 183.458130,158.486557 
	C183.968323,156.324799 184.478516,154.163025 185.482986,151.513535 
	C190.076065,138.578506 198.109009,128.238358 209.858139,120.003502 
	C211.851852,119.172302 213.844955,118.339622 215.839371,117.510132 
	C237.119308,108.659592 263.640503,112.454811 278.466614,131.250381 
	C284.411346,138.786758 287.895813,148.261475 292.523224,156.841446 
	C293.319122,158.317139 294.231201,159.730164 295.089600,161.172134 
	C295.564362,160.970474 296.039154,160.768814 296.513916,160.567154 
	C296.513916,142.260086 296.513916,123.953011 296.513916,105.686806 
	C289.966370,104.492378 289.677734,104.692108 288.104797,110.778419 
	C287.220947,114.198418 286.256744,117.597656 285.393127,120.769699 
	C276.230438,116.633026 268.141754,112.349640 259.617920,109.271378 
	C244.344910,103.755768 228.681320,103.812668 213.104431,108.245148 
	C199.619324,112.082397 187.578812,118.499153 178.000000,129.000534 
	C178.000000,129.000534 177.990891,128.985931 177.375381,129.248566 
	C163.206207,143.591354 155.436371,160.924759 152.817810,180.822998 
	C148.999527,209.837906 157.966034,234.429108 178.168991,255.153641 
	C180.254379,257.292877 183.296158,258.499817 185.847244,260.120544 
	C185.847244,260.120544 185.856110,260.170288 185.937119,260.840179 
	C187.960449,262.190460 189.983780,263.540741 192.397186,265.028656 
	C192.397186,265.028656 192.806488,265.088409 193.173767,265.676178 
	C195.450119,266.758209 197.726456,267.840240 200.567642,269.242432 
	C201.385880,269.476776 202.204117,269.711151 203.483093,270.505554 
	C207.141373,271.528015 210.751465,272.793793 214.466553,273.529388 
	C228.174103,276.243408 241.694519,275.525391 255.518494,270.843018 
	C256.013550,270.569397 256.508606,270.295776 257.759338,270.010132 
	C260.192230,269.023590 262.625122,268.037048 264.992889,267.047882 
M166.863998,319.009460 
	C168.473831,318.707153 170.083679,318.404846 171.972855,318.826355 
	C174.277985,321.862091 176.474365,319.073395 178.905426,319.420197 
	C179.118027,320.891510 179.330643,322.362854 178.885620,324.143494 
	C178.132126,326.941498 177.640762,329.567535 182.594330,329.242340 
	C182.948013,329.725494 183.301697,330.208649 182.975067,330.950775 
	C180.013412,331.667633 177.614487,332.796387 178.716690,336.754913 
	C183.954498,335.846771 189.025131,334.915375 194.120712,334.150146 
	C194.758560,334.054382 195.508789,335.110352 196.240372,335.162354 
	C198.772491,335.342285 202.420578,336.381195 203.625397,335.137604 
	C205.944595,332.743774 206.965256,329.046021 208.272324,325.787872 
	C208.404343,325.458832 206.811066,324.437653 206.005280,322.904175 
	C205.624054,318.616180 205.242813,314.328217 205.546539,309.965240 
	C206.637894,308.783295 207.729248,307.601318 208.820602,306.419342 
	C208.477417,306.048523 208.134232,305.677704 207.791061,305.306885 
	C206.149857,305.891846 204.508667,306.476807 202.268539,306.786407 
	C201.181381,306.092865 200.094223,305.399323 199.016693,303.944763 
	C198.889771,296.873749 193.265381,301.828674 190.535492,300.316498 
	C189.862961,299.943970 187.714081,302.226746 186.259674,303.310059 
	C186.198425,303.355682 186.297485,303.616516 185.900955,304.206665 
	C184.657135,305.260742 183.413315,306.314819 181.997910,306.598907 
	C179.766006,304.591278 176.069839,303.765991 176.509216,299.555023 
	C176.552734,299.138000 175.043610,298.169891 174.211746,298.114990 
	C169.469879,297.802124 164.642715,298.119781 159.992050,297.341644 
	C157.314651,296.893646 152.712921,294.677429 152.771896,293.437653 
	C153.029617,288.019379 149.071655,289.367279 146.818634,289.334259 
	C129.790649,289.084839 112.757301,289.228058 95.727463,289.061493 
	C91.504501,289.020203 89.269562,290.613739 90.216217,294.439606 
	C90.415588,294.713745 90.677055,294.901367 91.447357,295.539642 
	C92.597145,295.691467 93.746941,295.843262 94.744530,296.922668 
	C94.744530,311.371643 94.744530,325.820648 94.744530,339.980591 
	C95.308754,340.357391 95.446632,340.529968 95.585876,340.531067 
	C112.391090,340.664062 129.196411,340.784454 146.105270,341.622955 
	C147.908737,344.050934 149.611160,342.642365 149.654251,340.846497 
	C149.692490,339.253510 147.967255,337.618195 146.842453,335.497162 
	C146.908310,335.331482 146.974167,335.165771 147.830780,335.000000 
	C148.885147,335.000397 149.939529,335.000824 151.601334,335.294220 
	C153.795120,337.261292 155.133652,337.207825 155.871475,333.974976 
	C157.235397,333.947937 158.599319,333.920929 160.063477,334.558746 
	C161.630157,334.481445 163.196838,334.404144 164.763535,334.326813 
	C164.789139,333.832947 164.814743,333.339050 164.840363,332.845154 
	C163.269165,331.895294 161.697983,330.945435 159.966705,329.108032 
	C160.013489,326.407074 160.060272,323.706146 160.919693,321.002350 
	C162.621490,320.309631 164.323288,319.616943 166.863998,319.009460 
M108.837639,83.417511 
	C108.837639,114.360001 108.837639,145.302490 108.837639,176.392929 
	C115.037254,176.392929 120.743240,176.392929 126.854546,176.392929 
	C126.854546,158.469086 126.854546,140.890182 126.854546,123.012573 
	C134.384399,123.012573 141.536209,122.613159 148.620834,123.131828 
	C154.926483,123.593468 159.336655,127.279045 161.357010,133.477783 
	C161.758499,134.709579 162.235001,135.916931 162.676895,137.135574 
	C163.056107,137.037277 163.435303,136.938980 163.814514,136.840698 
	C163.814514,126.315529 163.814514,115.790359 163.814514,105.006828 
	C156.055725,104.293877 159.584091,112.309738 156.309937,114.559082 
	C146.402924,114.559082 136.675339,114.559082 127.025810,114.559082 
	C126.902382,113.842461 126.797180,113.514709 126.796562,113.186768 
	C126.780579,104.691727 126.771492,96.196678 126.769386,87.701622 
	C126.765991,73.985596 126.768456,73.985107 140.535736,73.984024 
	C150.803543,73.983215 161.071350,73.983864 171.331223,73.983864 
	C171.331223,70.995171 171.331223,68.631088 171.331223,66.304329 
	C145.128632,66.304329 119.350975,66.304329 93.591957,66.304329 
	C92.161224,71.384346 96.568901,70.129814 98.394043,70.619392 
	C107.335541,73.017822 107.777428,73.301659 108.837639,83.417511 
M261.367676,334.758362 
	C261.913666,335.436798 262.459625,336.115204 263.005615,336.793640 
	C263.530701,336.265656 264.055817,335.737671 264.580933,335.209717 
	C263.681213,334.900238 262.781494,334.590790 261.367676,334.758362 
M292.611206,300.677368 
	C292.837769,300.267334 293.064331,299.857300 293.290924,299.447296 
	C292.532623,299.390045 291.774292,299.332825 291.015991,299.275574 
	C291.365814,299.679657 291.715668,300.083740 292.611206,300.677368 
M93.407135,342.482300 
	C93.407135,342.482300 93.523560,342.411713 93.407135,342.482300 
M214.482712,299.589020 
	C214.482712,299.589020 214.415405,299.476746 214.482712,299.589020 
M292.482788,297.588593 
	C292.482788,297.588593 292.416046,297.477051 292.482788,297.588593 
z"/>
<path fill="#8CC6EC" opacity="1.000000" stroke="none" 
	d="
M182.238190,220.069656 
	C182.300446,220.439072 182.362701,220.808502 182.152283,221.625610 
	C182.492355,222.728775 183.105087,223.384247 183.717819,224.039719 
	C183.798248,224.477509 183.878662,224.915314 183.689484,225.926987 
	C184.203857,234.038651 186.934860,240.794891 192.016739,246.416565 
	C194.467255,249.127380 197.422897,251.381577 200.149811,253.842529 
	C200.149811,253.842529 200.010101,253.998779 200.070831,254.278320 
	C201.457733,255.339386 202.783920,256.120880 204.110107,256.902405 
	C204.110107,256.902405 203.992401,256.947266 204.010193,257.194885 
	C204.018372,257.628693 204.008728,257.814941 203.917969,258.381195 
	C201.365067,259.457428 198.893280,260.153687 196.099258,260.940704 
	C196.681976,261.679749 196.988144,262.247101 197.449448,262.625092 
	C201.605637,266.030457 203.193619,261.023865 206.324371,260.129395 
	C221.317657,268.930389 237.208801,269.112976 253.392075,266.829376 
	C254.711349,266.643188 255.830139,265.036163 257.042084,264.089355 
	C257.042084,264.089355 257.026825,264.015015 257.490112,264.022308 
	C260.359863,264.952148 264.602142,261.595428 265.053406,267.075531 
	C265.053406,267.075531 264.992889,267.047882 264.594482,267.028320 
	C261.602448,267.545013 257.857971,265.334503 257.003662,270.022156 
	C256.508606,270.295776 256.013550,270.569397 254.943375,270.581665 
	C252.435898,270.441132 250.499908,270.520905 248.571915,270.691101 
	C244.010727,271.093719 239.461182,271.708435 234.892227,271.920288 
	C230.253525,272.135345 225.589600,272.130341 220.951523,271.909973 
	C218.249680,271.781586 215.591629,270.906219 212.887253,270.611389 
	C209.613663,270.254486 206.311920,270.155884 203.022354,269.945526 
	C202.204117,269.711151 201.385880,269.476776 200.227325,268.740723 
	C197.526825,267.188843 195.166656,266.138611 192.806488,265.088409 
	C192.806488,265.088409 192.397186,265.028656 192.142120,264.628113 
	C189.876755,262.875122 187.866425,261.522705 185.856110,260.170288 
	C185.856110,260.170288 185.847244,260.120544 185.782852,259.796021 
	C184.866653,258.488525 184.030426,257.491547 183.160446,256.524902 
	C178.392960,251.227570 172.667145,246.504074 169.087845,240.500061 
	C164.736069,233.200272 162.433228,224.710052 158.797470,216.943863 
	C154.966309,208.760300 154.856064,200.036530 153.919266,191.356445 
	C153.110870,183.866180 155.720016,177.215820 157.783218,170.341263 
	C158.673798,167.373871 158.172775,163.794022 159.608765,161.220459 
	C164.566406,152.335449 170.146896,143.799896 175.373947,135.061737 
	C176.496048,133.185898 177.131348,131.018829 177.990891,128.985931 
	C177.990891,128.985931 178.000000,129.000534 178.365753,129.001266 
	C180.487259,128.333984 182.243027,127.665977 184.158295,127.306671 
	C187.124954,127.392044 189.932114,127.168716 191.921921,127.010414 
	C192.294098,128.727509 192.648880,130.364380 192.860428,132.297852 
	C191.146698,134.397598 189.576202,136.200760 187.737335,137.821152 
	C186.474731,137.514053 185.480499,137.389725 184.486282,137.265396 
	C185.325211,138.844009 186.164139,140.422623 186.963959,142.367035 
	C185.618164,146.155380 184.311478,149.577942 182.997070,153.368378 
	C182.967667,155.482712 182.945984,157.229172 182.924286,158.975647 
	C182.908585,159.421371 182.892883,159.867081 182.414856,160.666595 
	C181.403229,161.330032 180.384079,161.624420 180.373459,161.951523 
	C180.124802,169.619232 179.985077,177.290482 179.825317,184.961075 
	C179.639969,187.339188 179.454605,189.717285 178.952942,192.703278 
	C179.046982,194.881393 179.457352,196.451630 179.867706,198.021866 
	C179.899765,198.466003 179.931824,198.910156 179.662521,199.978119 
	C179.571396,205.732773 179.781647,210.863571 179.825348,216.084930 
	C179.771698,216.450806 179.884628,216.726135 180.028778,217.338257 
	C180.786057,218.473251 181.512131,219.271454 182.238190,220.069656 
M179.874420,146.636871 
	C182.601089,146.181168 183.465988,144.883942 181.224457,142.147217 
	C180.609512,143.492050 179.994583,144.836868 179.874420,146.636871 
z"/>
<path fill="#292526" opacity="1.000000" stroke="none" 
	d="
M108.835968,82.955551 
	C107.777428,73.301659 107.335541,73.017822 98.394043,70.619392 
	C96.568901,70.129814 92.161224,71.384346 93.591957,66.304329 
	C119.350975,66.304329 145.128632,66.304329 171.331223,66.304329 
	C171.331223,68.631088 171.331223,70.995171 171.331223,73.983864 
	C161.071350,73.983864 150.803543,73.983215 140.535736,73.984024 
	C126.768456,73.985107 126.765991,73.985596 126.769386,87.701622 
	C126.771492,96.196678 126.780579,104.691727 126.796562,113.186768 
	C126.797180,113.514709 126.902382,113.842461 127.025810,114.559082 
	C136.675339,114.559082 146.402924,114.559082 156.309937,114.559082 
	C159.584091,112.309738 156.055725,104.293877 163.814514,105.006828 
	C163.814514,115.790359 163.814514,126.315529 163.814514,136.840698 
	C163.435303,136.938980 163.056107,137.037277 162.676895,137.135574 
	C162.235001,135.916931 161.758499,134.709579 161.357010,133.477783 
	C159.336655,127.279045 154.926483,123.593468 148.620834,123.131828 
	C141.536209,122.613159 134.384399,123.012573 126.854546,123.012573 
	C126.854546,140.890182 126.854546,158.469086 126.854546,176.392929 
	C120.743240,176.392929 115.037254,176.392929 108.837639,176.392929 
	C108.837639,145.302490 108.837639,114.360001 108.835968,82.955551 
z"/>
<path fill="#292526" opacity="1.000000" stroke="none" 
	d="
M146.001709,340.905457 
	C129.196411,340.784454 112.391090,340.664062 95.585876,340.531067 
	C95.446632,340.529968 95.308754,340.357391 94.744530,339.980591 
	C94.744530,325.820648 94.744530,311.371643 95.191238,296.426758 
	C112.088753,295.862793 128.539566,295.794708 145.267212,295.832489 
	C145.932312,295.998016 146.320602,296.057648 146.720154,296.508240 
	C146.827820,297.932556 146.924225,298.965973 146.911865,300.406586 
	C146.873337,302.209320 146.943588,303.604858 146.914337,305.459869 
	C146.889908,315.612946 146.964966,325.306488 147.040024,335.000061 
	C146.974167,335.165771 146.908310,335.331482 146.824921,336.102997 
	C146.538849,338.107697 146.270279,339.506592 146.001709,340.905457 
M127.639549,327.212891 
	C127.970818,319.208313 128.302078,311.203735 128.636093,303.132812 
	C128.144089,303.132812 126.353844,303.132812 125.056740,303.132812 
	C127.807716,310.647675 126.065971,318.350067 125.919807,326.573853 
	C125.916611,327.336273 125.913414,328.098694 125.910217,328.861115 
	C126.325668,328.590790 126.741119,328.320496 127.639549,327.212891 
M104.006264,313.527832 
	C104.006012,315.522125 104.000908,317.516449 104.006294,319.510742 
	C104.036804,330.808990 109.354156,335.374329 120.412041,333.599304 
	C112.550575,331.360077 111.750443,330.422363 111.550217,321.903503 
	C111.404091,315.686462 111.521622,309.463196 111.521622,303.188477 
	C108.677269,303.188477 106.063652,303.188477 104.006264,303.188477 
	C104.006264,306.443726 104.006264,309.502930 104.006264,313.527832 
M134.906967,328.069458 
	C134.493073,329.609711 133.840530,331.150055 133.840897,332.690186 
	C133.840988,333.053986 136.119217,333.844055 137.195541,333.637207 
	C137.969406,333.488495 139.210129,331.550964 138.990692,331.204620 
	C138.174622,329.916687 136.840958,328.956726 134.906967,328.069458 
z"/>
<path fill="#97C7E6" opacity="1.000000" stroke="none" 
	d="
M183.998779,126.997971 
	C182.243027,127.665977 180.487259,128.333984 178.358551,128.996262 
	C187.578812,118.499153 199.619324,112.082397 213.104431,108.245148 
	C228.681320,103.812668 244.344910,103.755768 259.617920,109.271378 
	C268.141754,112.349640 276.230438,116.633026 285.393127,120.769699 
	C286.256744,117.597656 287.220947,114.198418 288.104797,110.778419 
	C289.677734,104.692108 289.966370,104.492378 296.513916,105.686806 
	C296.513916,123.953011 296.513916,142.260086 296.513916,160.567154 
	C296.039154,160.768814 295.564362,160.970474 295.089600,161.172134 
	C294.231201,159.730164 293.319122,158.317139 292.523224,156.841446 
	C287.895813,148.261475 284.411346,138.786758 278.466614,131.250381 
	C263.640503,112.454811 237.119308,108.659592 215.839371,117.510132 
	C213.844955,118.339622 211.851852,119.172302 209.452805,120.029350 
	C209.047470,120.055199 208.958572,119.956444 209.019333,119.595062 
	C209.433182,118.688980 209.687683,117.780106 210.154068,117.653816 
	C218.023788,115.522919 224.998169,109.755753 233.960510,111.924355 
	C235.830917,112.376930 238.012146,112.237663 239.906235,111.778061 
	C247.530975,109.927872 254.590515,111.221992 261.419800,114.857483 
	C262.637939,115.505951 264.266113,115.384186 265.704956,115.618073 
	C265.805359,115.150192 265.905731,114.682312 266.006134,114.214439 
	C265.387360,113.786293 264.825378,113.153030 264.140564,112.963493 
	C259.863342,111.779671 255.611557,110.076973 251.252274,109.703949 
	C241.676605,108.884583 232.031235,108.312492 222.436340,108.545692 
	C218.199783,108.648666 214.016800,110.955994 209.517960,112.353119 
	C209.497040,112.656059 209.423965,113.714424 209.318268,115.245407 
	C205.549728,114.506844 201.260651,111.834335 200.093262,118.013138 
	C200.027847,118.359383 198.095749,118.330612 197.039856,118.518028 
	C195.847763,118.729630 194.402573,118.636299 193.523285,119.289352 
	C190.247177,121.722534 187.158066,124.407501 183.998779,126.997971 
z"/>
<path fill="#FEFEFE" opacity="1.000000" stroke="none" 
	d="
M144.990372,295.726593 
	C128.539566,295.794708 112.088753,295.862793 95.267334,295.962952 
	C93.746941,295.843262 92.597145,295.691467 91.116409,295.051147 
	C90.586212,294.288422 90.324745,294.100861 90.001076,294.000000 
	C89.269562,290.613739 91.504501,289.020203 95.727463,289.061493 
	C112.757301,289.228058 129.790649,289.084839 146.818634,289.334259 
	C149.071655,289.367279 153.029617,288.019379 152.771896,293.437653 
	C152.712921,294.677429 157.314651,296.893646 159.992050,297.341644 
	C164.642715,298.119781 169.469879,297.802124 174.211746,298.114990 
	C175.043610,298.169891 176.552734,299.138000 176.509216,299.555023 
	C176.069839,303.765991 179.766006,304.591278 182.022278,307.251587 
	C181.543365,308.664398 181.040085,309.424591 180.087692,310.135254 
	C178.137466,310.055450 176.636353,310.025116 175.028687,309.664795 
	C173.609421,307.570984 172.296707,305.807220 171.014465,303.713623 
	C170.815186,302.609650 170.641708,301.185059 170.347137,301.159546 
	C166.265930,300.806305 162.168762,300.585388 158.073288,300.542694 
	C157.721237,300.539001 157.353607,302.028137 156.606140,302.891541 
	C155.755829,303.413666 154.891968,303.865082 154.888535,304.322906 
	C154.819412,313.546356 154.849213,322.770538 154.477478,331.993103 
	C153.061844,332.994812 152.027863,333.998016 150.993896,335.001221 
	C149.939529,335.000824 148.885147,335.000397 147.435394,335.000031 
	C146.964966,325.306488 146.889908,315.612946 147.273102,305.391541 
	C149.453140,302.956085 150.085236,301.207642 147.020630,299.999359 
	C146.924225,298.965973 146.827820,297.932556 147.050049,296.451050 
	C147.474152,294.394348 147.579620,292.785767 147.685074,291.177185 
	C147.009033,291.138306 146.332993,291.099426 145.656937,291.060547 
	C145.434753,292.615906 145.212555,294.171234 144.990372,295.726593 
M151.195770,302.514374 
	C151.209793,302.961121 151.223831,303.407867 151.237854,303.854614 
	C151.649094,303.721710 152.060349,303.588776 152.471588,303.455872 
	C152.217834,303.066589 151.964081,302.677338 151.195770,302.514374 
M152.588303,299.517151 
	C152.588303,299.517151 152.476776,299.583862 152.588303,299.517151 
M151.517197,296.410583 
	C151.517197,296.410583 151.584427,296.522888 151.517197,296.410583 
z"/>
<path fill="#F9F8F8" opacity="1.000000" stroke="none" 
	d="
M186.321854,303.777100 
	C186.297485,303.616516 186.198425,303.355682 186.259674,303.310059 
	C187.714081,302.226746 189.862961,299.943970 190.535492,300.316498 
	C193.265381,301.828674 198.889771,296.873749 198.681854,304.477173 
	C202.717758,313.932495 202.505081,322.861145 197.993912,332.188416 
	C202.971008,331.047241 203.976898,326.901581 206.018463,323.737701 
	C206.811066,324.437653 208.404343,325.458832 208.272324,325.787872 
	C206.965256,329.046021 205.944595,332.743774 203.625397,335.137604 
	C202.420578,336.381195 198.772491,335.342285 196.240372,335.162354 
	C195.508789,335.110352 194.758560,334.054382 194.120712,334.150146 
	C189.025131,334.915375 183.954498,335.846771 178.716690,336.754913 
	C177.614487,332.796387 180.013412,331.667633 183.572540,330.945557 
	C184.964661,331.450531 185.759293,331.960754 186.757599,332.667145 
	C187.218201,332.828339 187.475174,332.793396 187.732117,332.758423 
	C187.557861,332.436737 187.383606,332.115082 187.123474,331.434143 
	C181.905594,322.182281 182.819061,309.945587 189.500702,302.880005 
	C188.129562,303.266937 187.225708,303.522034 186.321854,303.777100 
z"/>
<path fill="#F9F8F8" opacity="1.000000" stroke="none" 
	d="
M276.030670,304.877106 
	C277.699799,302.931152 279.368927,300.985199 281.284180,298.752319 
	C284.018799,299.632019 287.424957,300.430878 290.524231,301.884247 
	C291.624146,302.399994 291.977234,304.508392 292.220764,306.106903 
	C290.721313,305.771179 289.672333,305.218262 287.928772,304.299194 
	C292.635437,314.064331 292.263855,322.932434 287.675720,332.932922 
	C289.906158,331.477051 291.179718,330.645721 292.453308,329.814423 
	C293.531952,330.620667 294.610596,331.426880 295.689240,332.233124 
	C294.868286,333.172119 294.137939,334.789246 293.208099,334.913483 
	C291.061188,335.200287 288.817505,334.763123 286.613098,334.619659 
	C286.604462,334.194794 286.595856,333.769958 286.587219,333.345123 
	C283.778534,334.491760 281.043640,335.899963 278.142395,336.718475 
	C274.558594,337.729553 275.078125,334.890625 275.266418,332.443237 
	C275.889496,332.199493 276.241211,332.300629 276.777466,332.614868 
	C277.219604,332.796417 277.477203,332.764832 277.734802,332.733215 
	C277.533081,332.446960 277.331390,332.160706 277.051758,331.511230 
	C275.968903,327.718018 274.156647,324.290558 274.145813,320.857422 
	C274.129089,315.532684 275.340118,310.204071 276.030670,304.877106 
M287.408997,303.478882 
	C287.408997,303.478882 287.517700,303.412903 287.408997,303.478882 
z"/>
<path fill="#FEFEFE" opacity="1.000000" stroke="none" 
	d="
M250.016815,333.970062 
	C249.415024,334.956696 248.873184,336.754974 248.202179,336.804535 
	C241.455811,337.302826 234.689056,337.539886 227.925003,337.754395 
	C227.418655,337.770447 226.888885,337.048340 226.448288,336.043579 
	C227.495697,334.623901 228.464828,333.830048 229.802673,333.131622 
	C232.444687,333.922180 234.914215,335.336884 235.886307,331.412689 
	C235.658020,331.085968 235.533340,330.986938 235.408661,330.887909 
	C235.565170,331.149231 235.721680,331.410553 235.435104,332.037872 
	C234.307846,330.907837 233.376282,329.472717 232.990265,327.903381 
	C232.149078,324.483673 232.614532,320.504700 228.705078,318.370605 
	C229.244476,317.478424 229.607193,316.886902 230.250671,316.089233 
	C231.606262,314.429474 232.681091,312.975861 233.961853,311.854736 
	C236.902359,313.717194 239.070053,312.890564 240.014374,310.122070 
	C241.538589,305.653381 244.832047,304.224640 249.432709,304.212891 
	C249.807693,313.919922 249.819199,323.391602 249.461487,332.830597 
	C248.036484,332.944397 246.980713,333.090881 245.924942,333.237366 
	C245.959656,333.509460 245.994385,333.781586 246.029099,334.053711 
	C247.412079,333.934479 248.795044,333.815247 250.193970,333.797607 
	C250.209930,333.899231 250.016815,333.970062 250.016815,333.970062 
z"/>
<path fill="#97C7E6" opacity="1.000000" stroke="none" 
	d="
M177.683136,129.117249 
	C177.131348,131.018829 176.496048,133.185898 175.373947,135.061737 
	C170.146896,143.799896 164.566406,152.335449 159.608765,161.220459 
	C158.172775,163.794022 158.673798,167.373871 157.783218,170.341263 
	C155.720016,177.215820 153.110870,183.866180 153.919266,191.356445 
	C154.856064,200.036530 154.966309,208.760300 158.797470,216.943863 
	C162.433228,224.710052 164.736069,233.200272 169.087845,240.500061 
	C172.667145,246.504074 178.392960,251.227570 183.160446,256.524902 
	C184.030426,257.491547 184.866653,258.488525 185.806305,259.805420 
	C183.296158,258.499817 180.254379,257.292877 178.168991,255.153641 
	C157.966034,234.429108 148.999527,209.837906 152.817810,180.822998 
	C155.436371,160.924759 163.206207,143.591354 177.683136,129.117249 
z"/>
<path fill="#373536" opacity="1.000000" stroke="none" 
	d="
M154.859100,331.994598 
	C154.849213,322.770538 154.819412,313.546356 154.888535,304.322906 
	C154.891968,303.865082 155.755829,303.413666 157.029449,302.967407 
	C158.531982,303.719971 159.721832,304.402435 159.823624,305.220306 
	C160.138351,307.749237 160.038528,310.329712 160.013458,313.146057 
	C159.982910,313.934540 160.038559,314.467194 160.006042,315.372925 
	C160.013107,316.497070 160.108337,317.248138 160.146103,318.374512 
	C160.094772,319.501617 160.100906,320.253418 160.107056,321.005188 
	C160.060272,323.706146 160.013489,326.407074 159.954956,329.933289 
	C159.949875,331.803650 159.956558,332.848755 159.963226,333.893890 
	C158.599319,333.920929 157.235397,333.947937 155.468674,333.592468 
	C154.996948,332.804810 154.928024,332.399719 154.859100,331.994598 
z"/>
<path fill="#F9F8F8" opacity="1.000000" stroke="none" 
	d="
M249.069244,303.977509 
	C244.832047,304.224640 241.538589,305.653381 240.014374,310.122070 
	C239.070053,312.890564 236.902359,313.717194 233.859970,311.538208 
	C232.710587,308.765442 231.869003,306.641693 231.027405,304.517944 
	C230.758408,302.613129 230.489426,300.708313 230.026779,297.432129 
	C233.026672,298.595917 235.395325,299.165375 237.377869,300.370209 
	C240.005219,301.966888 242.112503,302.714081 244.871170,300.403229 
	C246.834473,298.758636 249.198669,298.761383 249.710175,302.598663 
	C249.360947,303.362000 249.215088,303.669769 249.069244,303.977509 
z"/>
<path fill="#292728" opacity="1.000000" stroke="none" 
	d="
M249.432709,304.212891 
	C249.215088,303.669769 249.360947,303.362000 249.755524,302.942688 
	C251.393158,302.905792 252.782059,302.980469 254.498276,303.052917 
	C254.825577,303.050720 254.848969,303.238861 254.811295,303.419128 
	C254.773621,303.599396 254.938263,303.928894 254.938263,303.928894 
	C254.805389,312.316711 254.672516,320.704559 254.523163,329.839661 
	C254.526550,331.271576 254.546417,331.956177 254.321045,332.862183 
	C254.000992,333.290741 253.926193,333.497894 253.851379,333.705078 
	C252.823257,333.733093 251.795120,333.761078 250.391907,333.879578 
	C250.016815,333.970062 250.209930,333.899231 250.196136,333.552307 
	C250.182358,333.205414 249.830719,332.863281 249.830719,332.863281 
	C249.819199,323.391602 249.807693,313.919922 249.432709,304.212891 
z"/>
<path fill="#9EC8E2" opacity="1.000000" stroke="none" 
	d="
M203.252716,270.225525 
	C206.311920,270.155884 209.613663,270.254486 212.887253,270.611389 
	C215.591629,270.906219 218.249680,271.781586 220.951523,271.909973 
	C225.589600,272.130341 230.253525,272.135345 234.892227,271.920288 
	C239.461182,271.708435 244.010727,271.093719 248.571915,270.691101 
	C250.499908,270.520905 252.435898,270.441132 254.646851,270.568115 
	C241.694519,275.525391 228.174103,276.243408 214.466553,273.529388 
	C210.751465,272.793793 207.141373,271.528015 203.252716,270.225525 
z"/>
<path fill="#F9F8F8" opacity="1.000000" stroke="none" 
	d="
M254.915436,303.020508 
	C256.256226,302.061249 258.373779,300.134674 258.626678,300.354370 
	C261.866577,303.169189 263.883820,301.688812 265.168152,299.154907 
	C267.597198,299.955231 269.766113,300.396362 271.638733,301.393738 
	C272.690979,301.954132 273.253693,303.433624 273.932556,305.174011 
	C272.520050,307.566498 271.211945,309.284088 269.903839,311.001648 
	C267.677338,311.222687 265.450867,311.443695 263.841888,311.603424 
	C262.323120,309.192566 260.882111,306.905182 259.112183,303.967865 
	C257.471802,303.291565 256.160400,303.265198 254.848969,303.238861 
	C254.848969,303.238861 254.825577,303.050720 254.915436,303.020508 
z"/>
<path fill="#353334" opacity="1.000000" stroke="none" 
	d="
M186.553925,332.470978 
	C185.759293,331.960754 184.964661,331.450531 183.912704,330.816071 
	C183.301697,330.208649 182.948013,329.725494 182.261627,328.791199 
	C181.133713,326.838104 180.338470,325.336121 179.543243,323.834167 
	C179.330643,322.362854 179.118027,320.891510 178.890930,318.716064 
	C179.429886,315.402893 179.983353,312.793823 180.536804,310.184753 
	C181.040085,309.424591 181.543365,308.664398 182.108063,307.636566 
	C183.413315,306.314819 184.657135,305.260742 186.111404,303.991882 
	C187.225708,303.522034 188.129562,303.266937 189.500702,302.880005 
	C182.819061,309.945587 181.905594,322.182281 186.957397,331.601379 
	C186.877151,332.127869 186.553925,332.470978 186.553925,332.470978 
z"/>
<path fill="#262223" opacity="1.000000" stroke="none" 
	d="
M213.754395,329.990265 
	C213.764236,321.484497 213.774063,312.978729 213.437195,304.004517 
	C213.437027,303.300659 213.783554,303.065247 214.130081,302.829834 
	C215.390106,303.024902 216.650116,303.219940 218.149948,303.953369 
	C218.478302,304.654572 218.566818,304.817352 218.501282,305.415863 
	C218.397476,309.486938 218.447693,313.122314 218.478165,317.132629 
	C218.474396,317.757355 218.490387,318.007172 218.419800,318.697662 
	C218.411285,323.685608 218.489365,328.232819 218.285095,332.921326 
	C217.909302,333.251190 217.815857,333.439789 217.355927,333.735779 
	C215.890244,333.229523 214.791061,332.615906 213.800064,331.675415 
	C213.856964,330.895813 213.805679,330.443024 213.754395,329.990265 
z"/>
<path fill="#333132" opacity="1.000000" stroke="none" 
	d="
M206.011871,323.320923 
	C203.976898,326.901581 202.971008,331.047241 197.993912,332.188416 
	C202.505081,322.861145 202.717758,313.932495 198.677032,304.857666 
	C200.094223,305.399323 201.181381,306.092865 202.640167,307.224121 
	C203.628387,308.454651 204.244980,309.247437 204.861572,310.040222 
	C205.242813,314.328217 205.624054,318.616180 206.011871,323.320923 
z"/>
<path fill="#313030" opacity="1.000000" stroke="none" 
	d="
M292.612488,329.481628 
	C291.179718,330.645721 289.906158,331.477051 287.675720,332.932922 
	C292.263855,322.932434 292.635437,314.064331 287.928772,304.299194 
	C289.672333,305.218262 290.721313,305.771179 292.066467,306.523132 
	C292.362671,306.722168 292.397278,306.786469 292.529907,307.070648 
	C293.365784,308.258942 294.069092,309.163055 294.772369,310.067169 
	C297.156921,316.747681 297.263519,323.189331 292.612488,329.481628 
z"/>
<path fill="#313030" opacity="1.000000" stroke="none" 
	d="
M269.898193,311.385681 
	C271.211945,309.284088 272.520050,307.566498 273.957703,305.557007 
	C274.516571,305.165100 274.945892,305.065094 275.702942,304.921082 
	C275.340118,310.204071 274.129089,315.532684 274.145813,320.857422 
	C274.156647,324.290558 275.968903,327.718018 276.917084,331.642578 
	C276.860352,332.137115 276.592926,332.401733 276.592926,332.401733 
	C276.241211,332.300629 275.889496,332.199493 275.270508,332.027039 
	C273.930206,330.720825 272.857147,329.485931 271.481476,327.780823 
	C270.841736,326.853180 270.504608,326.395752 270.167511,325.938354 
	C269.718750,323.886993 269.269958,321.835602 268.798706,319.066101 
	C268.725677,317.894043 268.675110,317.440125 268.624542,316.986206 
	C269.047211,315.247375 269.469879,313.508545 269.898193,311.385681 
z"/>
<path fill="#9EC8E2" opacity="1.000000" stroke="none" 
	d="
M203.999100,258.001221 
	C204.008728,257.814941 204.018372,257.628693 204.067398,257.164490 
	C211.141663,259.598358 218.007202,262.949524 225.252060,264.868561 
	C235.498459,267.582703 245.921799,266.014923 256.619843,264.059875 
	C255.830139,265.036163 254.711349,266.643188 253.392075,266.829376 
	C237.208801,269.112976 221.317657,268.930389 206.203659,259.864868 
	C205.172180,258.972137 204.585648,258.486694 203.999100,258.001221 
z"/>
<path fill="#97C7E6" opacity="1.000000" stroke="none" 
	d="
M183.004776,153.000519 
	C184.311478,149.577942 185.618164,146.155380 187.235794,142.135284 
	C187.699722,140.359818 187.852722,139.181870 188.005707,138.003922 
	C189.576202,136.200760 191.146698,134.397598 193.166656,132.146713 
	C194.605988,130.412842 195.389175,128.865234 196.624100,127.889114 
	C200.467102,124.851509 202.928513,119.593658 208.958572,119.956444 
	C208.958572,119.956444 209.047470,120.055199 209.092056,120.106224 
	C198.109009,128.238358 190.076065,138.578506 184.978973,151.864578 
	C183.984909,152.477249 183.494843,152.738876 183.004776,153.000519 
z"/>
<path fill="#F9F8F8" opacity="1.000000" stroke="none" 
	d="
M218.567444,332.780060 
	C218.489365,328.232819 218.411285,323.685608 218.780594,318.669159 
	C220.194351,318.144623 221.160721,318.089264 222.369675,318.022156 
	C222.612259,318.010406 223.097519,318.032166 223.032272,318.264496 
	C222.967026,318.496826 223.106171,318.958984 222.793228,319.238495 
	C222.321045,324.675812 222.161804,329.833649 222.002563,334.991455 
	C216.998642,338.198761 213.062225,336.234039 210.115295,332.203278 
	C211.711685,331.996613 212.701782,331.999451 213.691864,332.002319 
	C214.791061,332.615906 215.890244,333.229523 217.627716,333.891663 
	C218.716797,333.737244 219.167603,333.534363 219.618408,333.331482 
	C219.268066,333.147675 218.917755,332.963867 218.567444,332.780060 
z"/>
<path fill="#F9F8F8" opacity="1.000000" stroke="none" 
	d="
M222.347595,335.025879 
	C222.161804,329.833649 222.321045,324.675812 223.180847,319.236847 
	C224.955719,320.516418 226.408035,321.942871 227.020859,323.667572 
	C228.096298,326.694153 228.657440,329.903442 229.433975,333.036194 
	C228.464828,333.830048 227.495697,334.623901 226.263275,335.708282 
	C224.897537,335.685974 223.795074,335.373138 222.347595,335.025879 
z"/>
<path fill="#F9F8F8" opacity="1.000000" stroke="none" 
	d="
M223.097519,318.032166 
	C223.097519,318.032166 222.612259,318.010406 222.320404,317.791199 
	C222.028534,317.571991 221.961166,317.105072 221.973022,316.640991 
	C221.655670,312.117706 221.326477,308.058441 220.998001,303.666382 
	C220.998932,302.889862 220.999161,302.446167 220.999390,302.002441 
	C221.443588,302.001678 221.887802,302.000916 222.672546,302.366516 
	C223.981766,303.497345 224.950424,304.261810 226.307724,305.137451 
	C229.728104,308.776337 228.928268,312.387604 226.728119,316.123474 
	C226.271896,316.407684 226.101944,316.651184 225.688278,316.942657 
	C224.607010,317.299255 223.852264,317.665710 223.097519,318.032166 
z"/>
<path fill="#353334" opacity="1.000000" stroke="none" 
	d="
M170.983994,304.043457 
	C172.296707,305.807220 173.609421,307.570984 174.957108,310.043762 
	C173.892563,313.202698 172.793045,315.652618 171.693512,318.102539 
	C170.083679,318.404846 168.473831,318.707153 166.429123,318.760040 
	C165.994247,318.510620 166.040421,318.098389 166.417160,318.034912 
	C171.286987,314.322968 171.402267,309.830658 166.900101,304.043457 
	C168.422775,304.043457 169.703384,304.043457 170.983994,304.043457 
z"/>
<path fill="#9EC8E2" opacity="1.000000" stroke="none" 
	d="
M200.101013,253.504089 
	C197.422897,251.381577 194.467255,249.127380 192.016739,246.416565 
	C186.934860,240.794891 184.203857,234.038651 183.685623,226.261597 
	C187.743439,236.004288 192.963211,245.139359 200.101013,253.504089 
z"/>
<path fill="#9EC8E2" opacity="1.000000" stroke="none" 
	d="
M265.424133,267.056183 
	C264.602142,261.595428 260.359863,264.952148 257.522552,264.041992 
	C261.297943,262.295868 265.457306,260.406555 269.743500,258.871185 
	C270.808624,258.489624 272.283844,259.253021 273.570618,259.490143 
	C273.296722,260.832642 273.478882,262.782410 272.659088,263.398010 
	C270.613647,264.934082 268.112854,265.863770 265.424133,267.056183 
z"/>
<path fill="#333132" opacity="1.000000" stroke="none" 
	d="
M226.931534,316.025024 
	C228.928268,312.387604 229.728104,308.776337 226.231750,304.873199 
	C225.833466,304.326904 225.899796,304.156036 225.966141,303.985168 
	C227.382294,304.063782 228.798447,304.142395 230.621002,304.369507 
	C231.869003,306.641693 232.710587,308.765442 233.654053,311.205719 
	C232.681091,312.975861 231.606262,314.429474 229.920944,316.041260 
	C228.874451,316.214050 228.438416,316.228668 227.735565,316.184326 
	C227.289673,316.091919 227.110596,316.058472 226.931534,316.025024 
z"/>
<path fill="#F9F8F8" opacity="1.000000" stroke="none" 
	d="
M171.833191,318.464447 
	C172.793045,315.652618 173.892563,313.202698 175.063660,310.373779 
	C176.636353,310.025116 178.137466,310.055450 180.087708,310.135254 
	C179.983353,312.793823 179.429886,315.402893 178.796143,318.356201 
	C176.474365,319.073395 174.277985,321.862091 171.833191,318.464447 
z"/>
<path fill="#9EC8E2" opacity="1.000000" stroke="none" 
	d="
M179.899170,184.521576 
	C179.985077,177.290482 180.124802,169.619232 180.373459,161.951523 
	C180.384079,161.624420 181.403229,161.330032 182.326019,160.989746 
	C181.790649,168.666763 180.881836,176.374435 179.899170,184.521576 
z"/>
<path fill="#9EC8E2" opacity="1.000000" stroke="none" 
	d="
M182.417496,219.776260 
	C181.512131,219.271454 180.786057,218.473251 180.028778,217.086472 
	C179.995682,216.330063 179.993790,216.162216 179.991882,215.994385 
	C179.781647,210.863571 179.571396,205.732773 179.633270,200.311340 
	C180.802536,206.508102 181.699661,212.995483 182.417496,219.776260 
z"/>
<path fill="#F9F8F8" opacity="1.000000" stroke="none" 
	d="
M160.013351,334.226318 
	C159.956558,332.848755 159.949875,331.803650 160.035004,330.377014 
	C161.697983,330.945435 163.269165,331.895294 164.840363,332.845154 
	C164.814743,333.339050 164.789139,333.832947 164.763535,334.326813 
	C163.196838,334.404144 161.630157,334.481445 160.013351,334.226318 
z"/>
<path fill="#F9F8F8" opacity="1.000000" stroke="none" 
	d="
M146.053497,341.264221 
	C146.270279,339.506592 146.538849,338.107697 146.913940,336.355225 
	C147.967255,337.618195 149.692490,339.253510 149.654251,340.846497 
	C149.611160,342.642365 147.908737,344.050934 146.053497,341.264221 
z"/>
<path fill="#F8F6F7" opacity="1.000000" stroke="none" 
	d="
M166.040421,318.098389 
	C166.040421,318.098389 165.994247,318.510620 166.009674,318.717438 
	C164.323288,319.616943 162.621490,320.309631 160.513367,321.003784 
	C160.100906,320.253418 160.094772,319.501617 160.505371,318.374268 
	C162.628220,318.031921 164.334320,318.065155 166.040421,318.098389 
z"/>
<path fill="#F9F8F8" opacity="1.000000" stroke="none" 
	d="
M205.204056,310.002747 
	C204.244980,309.247437 203.628387,308.454651 202.939636,307.361816 
	C204.508667,306.476807 206.149857,305.891846 207.791061,305.306885 
	C208.134232,305.677704 208.477417,306.048523 208.820602,306.419342 
	C207.729248,307.601318 206.637894,308.783295 205.204056,310.002747 
z"/>
<path fill="#F9F8F8" opacity="1.000000" stroke="none" 
	d="
M154.477463,331.993103 
	C154.928024,332.399719 154.996948,332.804810 155.065140,333.519165 
	C155.133652,337.207825 153.795120,337.261292 151.297607,335.147705 
	C152.027863,333.998016 153.061844,332.994812 154.477463,331.993103 
z"/>
<path fill="#9EC8E2" opacity="1.000000" stroke="none" 
	d="
M257.381500,270.016144 
	C257.857971,265.334503 261.602448,267.545013 264.627045,267.029602 
	C262.625122,268.037048 260.192230,269.023590 257.381500,270.016144 
z"/>
<path fill="#97C7E6" opacity="1.000000" stroke="none" 
	d="
M185.896606,260.505249 
	C187.866425,261.522705 189.876755,262.875122 191.947083,264.559265 
	C189.983780,263.540741 187.960449,262.190460 185.896606,260.505249 
z"/>
<path fill="#F9F8F8" opacity="1.000000" stroke="none" 
	d="
M295.065369,310.036346 
	C294.069092,309.163055 293.365784,308.258942 292.560730,307.090210 
	C293.484222,306.342499 294.509521,305.859436 296.708801,304.823242 
	C296.101471,307.153809 295.729919,308.579681 295.065369,310.036346 
z"/>
<path fill="#97C7E6" opacity="1.000000" stroke="none" 
	d="
M192.990128,265.382294 
	C195.166656,266.138611 197.526825,267.188843 199.944885,268.580658 
	C197.726456,267.840240 195.450119,266.758209 192.990128,265.382294 
z"/>
<path fill="#9EC8E2" opacity="1.000000" stroke="none" 
	d="
M182.997070,153.368378 
	C183.494843,152.738876 183.984909,152.477249 184.731842,152.108444 
	C184.478516,154.163025 183.968323,156.324799 183.191208,158.731110 
	C182.945984,157.229172 182.967667,155.482712 182.997070,153.368378 
z"/>
<path fill="#F9F8F8" opacity="1.000000" stroke="none" 
	d="
M179.214417,323.988831 
	C180.338470,325.336121 181.133713,326.838104 181.992096,328.657776 
	C177.640762,329.567535 178.132126,326.941498 179.214417,323.988831 
z"/>
<path fill="#F9F8F8" opacity="1.000000" stroke="none" 
	d="
M213.998657,302.455933 
	C213.783554,303.065247 213.437027,303.300659 213.087463,303.752655 
	C212.088913,303.830963 211.093399,303.692719 210.097870,303.554474 
	C210.225464,302.930664 210.344940,301.769836 210.481903,301.767761 
	C211.608505,301.750763 212.738373,301.949036 213.998657,302.455933 
z"/>
<path fill="#F9F8F8" opacity="1.000000" stroke="none" 
	d="
M261.624725,334.519836 
	C262.781494,334.590790 263.681213,334.900238 264.580933,335.209717 
	C264.055817,335.737671 263.530701,336.265656 263.005615,336.793640 
	C262.459625,336.115204 261.913666,335.436798 261.624725,334.519836 
z"/>
<path fill="#9EC8E2" opacity="1.000000" stroke="none" 
	d="
M179.923279,197.638611 
	C179.457352,196.451630 179.046982,194.881393 178.955612,193.093826 
	C179.509354,194.336121 179.744095,195.795746 179.923279,197.638611 
z"/>
<path fill="#8C8A8B" opacity="1.000000" stroke="none" 
	d="
M254.181091,333.841797 
	C253.926193,333.497894 254.000992,333.290741 254.587280,332.882935 
	C255.776794,332.646393 256.454865,332.610474 257.132904,332.574554 
	C257.673309,332.982666 258.213715,333.390778 258.466553,334.010071 
	C257.897583,334.196045 257.617981,334.209259 257.340179,334.260803 
	C256.397064,334.166718 255.453918,334.072601 254.181091,333.841797 
z"/>
<path fill="#9EC8E2" opacity="1.000000" stroke="none" 
	d="
M204.043579,256.565491 
	C202.783920,256.120880 201.457733,255.339386 200.142670,254.200012 
	C201.428207,254.637619 202.702637,255.433090 204.043579,256.565491 
z"/>
<path fill="#F9F8F8" opacity="1.000000" stroke="none" 
	d="
M257.057068,332.267822 
	C256.454865,332.610474 255.776794,332.646393 254.832504,332.661560 
	C254.546417,331.956177 254.526550,331.271576 254.657806,330.278778 
	C255.533051,330.634094 256.257141,331.297607 257.057068,332.267822 
z"/>
<path fill="#F9F8F8" opacity="1.000000" stroke="none" 
	d="
M213.800049,331.675446 
	C212.701782,331.999451 211.711685,331.996613 210.349625,331.985596 
	C210.997971,331.315247 212.018295,330.653046 213.396515,329.990570 
	C213.805679,330.443024 213.856964,330.895813 213.800049,331.675446 
z"/>
<path fill="#F8F6F7" opacity="1.000000" stroke="none" 
	d="
M225.729340,303.814087 
	C225.899796,304.156036 225.833466,304.326904 225.843124,304.761993 
	C224.950424,304.261810 223.981766,303.497345 223.005936,302.365845 
	C222.998779,301.998779 223.000000,302.000000 223.333405,301.999634 
	C224.112152,301.999115 224.557510,301.998932 225.002853,301.998779 
	C225.166077,302.546844 225.329300,303.094940 225.729340,303.814087 
z"/>
<path fill="#9EC8E2" opacity="1.000000" stroke="none" 
	d="
M183.763092,223.750732 
	C183.105087,223.384247 182.492355,222.728775 182.184418,221.904800 
	C182.928925,222.311447 183.368652,222.886597 183.763092,223.750732 
z"/>
<path fill="#F9F8F8" opacity="1.000000" stroke="none" 
	d="
M292.338379,300.582581 
	C291.715668,300.083740 291.365814,299.679657 291.015991,299.275574 
	C291.774292,299.332825 292.532623,299.390045 293.290924,299.447266 
	C293.064331,299.857300 292.837769,300.267334 292.338379,300.582581 
z"/>
<path fill="#F8F6F7" opacity="1.000000" stroke="none" 
	d="
M220.743408,302.111206 
	C220.999161,302.446167 220.998932,302.889862 220.759491,303.760468 
	C219.898621,304.451599 219.276978,304.715851 218.655319,304.980133 
	C218.566818,304.817352 218.478302,304.654572 218.349274,304.216827 
	C219.035004,303.367889 219.761230,302.793915 220.743408,302.111206 
z"/>
<path fill="#F9F8F8" opacity="1.000000" stroke="none" 
	d="
M257.265442,334.635010 
	C257.617981,334.209259 257.897583,334.196045 258.384705,334.245300 
	C258.666290,335.110199 258.742218,335.951080 258.818115,336.791931 
	C258.275665,336.197693 257.733185,335.603424 257.265442,334.635010 
z"/>
<path fill="#F9F8F8" opacity="1.000000" stroke="none" 
	d="
M269.909424,326.112061 
	C270.504608,326.395752 270.841736,326.853180 271.229553,327.600708 
	C270.737244,327.355774 270.194275,326.820770 269.909424,326.112061 
z"/>
<path fill="#F9F8F8" opacity="1.000000" stroke="none" 
	d="
M224.963730,301.699768 
	C224.557510,301.998932 224.112152,301.999115 223.332794,301.999023 
	C223.232819,301.479797 223.466858,300.960815 223.700897,300.441833 
	C224.108810,300.761475 224.516708,301.081146 224.963730,301.699768 
z"/>
<path fill="#F9F8F8" opacity="1.000000" stroke="none" 
	d="
M268.367188,317.035675 
	C268.675110,317.440125 268.725677,317.894043 268.688385,318.681610 
	C268.436951,318.371887 268.273407,317.728516 268.367188,317.035675 
z"/>
<path fill="#8C8A8B" opacity="1.000000" stroke="none" 
	d="
M254.811295,303.419128 
	C256.160400,303.265198 257.471802,303.291565 258.905457,303.700928 
	C257.935730,304.065247 256.843719,304.046600 255.345001,303.978394 
	C254.938263,303.928894 254.773621,303.599396 254.811295,303.419128 
z"/>
<path fill="#F9F8F8" opacity="1.000000" stroke="none" 
	d="
M93.465347,342.447021 
	C93.523560,342.411713 93.407135,342.482300 93.465347,342.447021 
z"/>
<path fill="#F9F8F8" opacity="1.000000" stroke="none" 
	d="
M214.449066,299.532898 
	C214.415405,299.476746 214.482712,299.589020 214.449066,299.532898 
z"/>
<path fill="#F9F8F8" opacity="1.000000" stroke="none" 
	d="
M292.449402,297.532837 
	C292.416046,297.477051 292.482788,297.588593 292.449402,297.532837 
z"/>
<path fill="#F9F8F8" opacity="1.000000" stroke="none" 
	d="
M90.108643,294.219788 
	C90.324745,294.100861 90.586212,294.288422 90.893036,294.782562 
	C90.677055,294.901367 90.415588,294.713745 90.108643,294.219788 
z"/>
<path fill="#8CC6ED" opacity="1.000000" stroke="none" 
	d="
M209.019333,119.595062 
	C202.928513,119.593658 200.467102,124.851509 196.624100,127.889114 
	C195.389175,128.865234 194.605988,130.412842 193.309875,131.850128 
	C192.648880,130.364380 192.294098,128.727509 191.921921,127.010414 
	C189.932114,127.168716 187.124954,127.392044 184.158295,127.306671 
	C187.158066,124.407501 190.247177,121.722534 193.523285,119.289352 
	C194.402573,118.636299 195.847763,118.729630 197.039856,118.518028 
	C198.095749,118.330612 200.027847,118.359383 200.093262,118.013138 
	C201.260651,111.834335 205.549728,114.506844 209.318268,115.245407 
	C209.423965,113.714424 209.497040,112.656059 209.517960,112.353119 
	C214.016800,110.955994 218.199783,108.648666 222.436340,108.545692 
	C232.031235,108.312492 241.676605,108.884583 251.252274,109.703949 
	C255.611557,110.076973 259.863342,111.779671 264.140564,112.963493 
	C264.825378,113.153030 265.387360,113.786293 266.006134,114.214439 
	C265.905731,114.682312 265.805359,115.150192 265.704956,115.618073 
	C264.266113,115.384186 262.637939,115.505951 261.419800,114.857483 
	C254.590515,111.221992 247.530975,109.927872 239.906235,111.778061 
	C238.012146,112.237663 235.830917,112.376930 233.960510,111.924355 
	C224.998169,109.755753 218.023788,115.522919 210.154068,117.653816 
	C209.687683,117.780106 209.433182,118.688980 209.019333,119.595062 
z"/>
<path fill="#97C7E6" opacity="1.000000" stroke="none" 
	d="
M203.917969,258.381195 
	C204.585648,258.486694 205.172180,258.972137 205.879456,259.722137 
	C203.193619,261.023865 201.605637,266.030457 197.449448,262.625092 
	C196.988144,262.247101 196.681976,261.679749 196.099258,260.940704 
	C198.893280,260.153687 201.365067,259.457428 203.917969,258.381195 
z"/>
<path fill="#8CC6ED" opacity="1.000000" stroke="none" 
	d="
M187.737335,137.821152 
	C187.852722,139.181870 187.699722,140.359818 187.274887,141.769501 
	C186.164139,140.422623 185.325211,138.844009 184.486282,137.265396 
	C185.480499,137.389725 186.474731,137.514053 187.737335,137.821152 
z"/>
<path fill="#97C7E6" opacity="1.000000" stroke="none" 
	d="
M179.627045,146.409271 
	C179.994583,144.836868 180.609512,143.492050 181.224457,142.147217 
	C183.465988,144.883942 182.601089,146.181168 179.627045,146.409271 
z"/>
<path fill="#97C7E6" opacity="1.000000" stroke="none" 
	d="
M179.825333,216.084930 
	C179.993790,216.162216 179.995682,216.330063 179.997574,216.749664 
	C179.884628,216.726135 179.771698,216.450806 179.825333,216.084930 
z"/>
<path fill="#F7F5F6" opacity="1.000000" stroke="none" 
	d="
M104.006264,313.044983 
	C104.006264,309.502930 104.006264,306.443726 104.006264,303.188477 
	C106.063652,303.188477 108.677269,303.188477 111.521622,303.188477 
	C111.521622,309.463196 111.404091,315.686462 111.550217,321.903503 
	C111.750443,330.422363 112.550575,331.360077 120.412041,333.599304 
	C109.354156,335.374329 104.036804,330.808990 104.006294,319.510742 
	C104.000908,317.516449 104.006012,315.522125 104.006264,313.044983 
z"/>
<path fill="#E6E3E4" opacity="1.000000" stroke="none" 
	d="
M126.248672,325.908936 
	C126.065971,318.350067 127.807716,310.647675 125.056740,303.132812 
	C126.353844,303.132812 128.144089,303.132812 128.636093,303.132812 
	C128.302078,311.203735 127.970818,319.208313 127.333893,327.242249 
	C126.768387,326.817383 126.508530,326.363159 126.248672,325.908936 
z"/>
<path fill="#E6E3E4" opacity="1.000000" stroke="none" 
	d="
M135.304291,327.971558 
	C136.840958,328.956726 138.174622,329.916687 138.990692,331.204620 
	C139.210129,331.550964 137.969406,333.488495 137.195541,333.637207 
	C136.119217,333.844055 133.840988,333.053986 133.840897,332.690186 
	C133.840530,331.150055 134.493073,329.609711 135.304291,327.971558 
z"/>
<path fill="#F9F8F8" opacity="1.000000" stroke="none" 
	d="
M145.267212,295.832489 
	C145.212555,294.171234 145.434753,292.615906 145.656937,291.060547 
	C146.332993,291.099426 147.009033,291.138306 147.685074,291.177185 
	C147.579620,292.785767 147.474152,294.394348 147.038788,296.060120 
	C146.320602,296.057648 145.932312,295.998016 145.267212,295.832489 
z"/>
<path fill="#F9F8F8" opacity="1.000000" stroke="none" 
	d="
M146.911865,300.406586 
	C150.085236,301.207642 149.453140,302.956085 147.372620,304.932068 
	C146.943588,303.604858 146.873337,302.209320 146.911865,300.406586 
z"/>
<path fill="#999697" opacity="1.000000" stroke="none" 
	d="
M126.084244,326.241394 
	C126.508530,326.363159 126.768387,326.817383 127.092407,327.660889 
	C126.741119,328.320496 126.325668,328.590790 125.910217,328.861115 
	C125.913414,328.098694 125.916611,327.336273 126.084244,326.241394 
z"/>
<path fill="#F9F8F8" opacity="1.000000" stroke="none" 
	d="
M166.417160,318.034912 
	C164.334320,318.065155 162.628220,318.031921 160.562836,317.998962 
	C160.108337,317.248138 160.013107,316.497070 160.333466,315.308350 
	C160.532578,314.210541 160.316132,313.550354 160.099670,312.890198 
	C160.038528,310.329712 160.138351,307.749237 159.823624,305.220306 
	C159.721832,304.402435 158.531982,303.719971 157.416534,302.899689 
	C157.353607,302.028137 157.721237,300.539001 158.073288,300.542694 
	C162.168762,300.585388 166.265930,300.806305 170.347137,301.159546 
	C170.641708,301.185059 170.815186,302.609650 171.014465,303.713623 
	C169.703384,304.043457 168.422775,304.043457 166.900101,304.043457 
	C171.402267,309.830658 171.286987,314.322968 166.417160,318.034912 
z"/>
<path fill="#F9F8F8" opacity="1.000000" stroke="none" 
	d="
M151.453033,302.401215 
	C151.964081,302.677338 152.217834,303.066589 152.471588,303.455872 
	C152.060349,303.588776 151.649094,303.721710 151.237854,303.854614 
	C151.223831,303.407867 151.209793,302.961121 151.453033,302.401215 
z"/>
<path fill="#F9F8F8" opacity="1.000000" stroke="none" 
	d="
M152.532532,299.550507 
	C152.476776,299.583862 152.588303,299.517151 152.532532,299.550507 
z"/>
<path fill="#F9F8F8" opacity="1.000000" stroke="none" 
	d="
M151.550812,296.466736 
	C151.584427,296.522888 151.517197,296.410583 151.550812,296.466736 
z"/>
<path fill="#353334" opacity="1.000000" stroke="none" 
	d="
M187.043243,331.960632 
	C187.383606,332.115082 187.557861,332.436737 187.732117,332.758423 
	C187.475174,332.793396 187.218201,332.828339 186.757584,332.667145 
	C186.553925,332.470978 186.877151,332.127869 187.043243,331.960632 
z"/>
<path fill="#313030" opacity="1.000000" stroke="none" 
	d="
M276.994995,332.005798 
	C277.331390,332.160706 277.533081,332.446960 277.734802,332.733215 
	C277.477203,332.764832 277.219604,332.796417 276.777466,332.614868 
	C276.592926,332.401733 276.860352,332.137115 276.994995,332.005798 
z"/>
<path fill="#FFFFFF" opacity="1.000000" stroke="none" 
	d="
M287.463348,303.445892 
	C287.517700,303.412903 287.408997,303.478882 287.463348,303.445892 
z"/>
<path fill="#373536" opacity="1.000000" stroke="none" 
	d="
M223.032272,318.264496 
	C223.852264,317.665710 224.607010,317.299255 225.793854,317.248383 
	C226.808090,317.833344 227.390244,318.102753 228.077087,318.510681 
	C228.181793,318.649231 228.528412,318.671295 228.528412,318.671295 
	C232.614532,320.504700 232.149078,324.483673 232.990265,327.903381 
	C233.376282,329.472717 234.307846,330.907837 235.456238,332.019073 
	C235.920456,331.634308 235.989929,331.640350 235.989929,331.640350 
	C234.914215,335.336884 232.444687,333.922180 229.802689,333.131653 
	C228.657440,329.903442 228.096298,326.694153 227.020859,323.667572 
	C226.408035,321.942871 224.955719,320.516418 223.493805,318.957336 
	C223.106171,318.958984 222.967026,318.496826 223.032272,318.264496 
z"/>
<path fill="#8C8A8B" opacity="1.000000" stroke="none" 
	d="
M249.461487,332.830597 
	C249.830719,332.863281 250.182358,333.205414 250.180191,333.450714 
	C248.795044,333.815247 247.412079,333.934479 246.029099,334.053711 
	C245.994385,333.781586 245.959656,333.509460 245.924942,333.237366 
	C246.980713,333.090881 248.036484,332.944397 249.461487,332.830597 
z"/>
<path fill="#F9F8F8" opacity="1.000000" stroke="none" 
	d="
M228.705078,318.370605 
	C228.528412,318.671295 228.181793,318.649231 228.087585,318.154877 
	C227.996384,317.188110 227.999390,316.715668 228.002396,316.243256 
	C228.438416,316.228668 228.874451,316.214050 229.640198,316.247375 
	C229.607193,316.886902 229.244476,317.478424 228.705078,318.370605 
z"/>
<path fill="#F9F8F8" opacity="1.000000" stroke="none" 
	d="
M235.886307,331.412689 
	C235.989929,331.640350 235.920456,331.634308 235.899323,331.653107 
	C235.721680,331.410553 235.565170,331.149231 235.408661,330.887909 
	C235.533340,330.986938 235.658020,331.085968 235.886307,331.412689 
z"/>
<path fill="#F8F6F7" opacity="1.000000" stroke="none" 
	d="
M160.013458,313.146057 
	C160.316132,313.550354 160.532578,314.210541 160.421631,314.935272 
	C160.038559,314.467194 159.982910,313.934540 160.013458,313.146057 
z"/>
<path fill="#F9F8F8" opacity="1.000000" stroke="none" 
	d="
M218.501282,305.415863 
	C219.276978,304.715851 219.898621,304.451599 220.758789,304.093262 
	C221.326477,308.058441 221.655670,312.117706 221.628540,316.588623 
	C220.347458,316.919434 219.422699,316.838531 218.497925,316.757660 
	C218.447693,313.122314 218.397476,309.486938 218.501282,305.415863 
z"/>
<path fill="#A29E9F" opacity="1.000000" stroke="none" 
	d="
M218.478180,317.132629 
	C219.422699,316.838531 220.347458,316.919434 221.616699,317.052704 
	C221.961166,317.105072 222.028534,317.571991 222.077820,317.802979 
	C221.160721,318.089264 220.194351,318.144623 218.867188,318.228455 
	C218.490387,318.007172 218.474396,317.757355 218.478180,317.132629 
z"/>
<path fill="#A29E9F" opacity="1.000000" stroke="none" 
	d="
M218.285080,332.921326 
	C218.917755,332.963867 219.268066,333.147675 219.618408,333.331482 
	C219.167603,333.534363 218.716797,333.737244 217.994202,333.784241 
	C217.815857,333.439789 217.909302,333.251190 218.285080,332.921326 
z"/>
<path fill="#F8F6F7" opacity="1.000000" stroke="none" 
	d="
M227.735565,316.184326 
	C227.999390,316.715668 227.996384,317.188110 227.982880,318.016327 
	C227.390244,318.102753 226.808090,317.833344 226.120361,317.258240 
	C226.101944,316.651184 226.271896,316.407684 226.728119,316.123474 
	C227.110596,316.058472 227.289673,316.091919 227.735565,316.184326 
z"/>
</svg>