<svg version="1.1" id="Layer_1" xmlns="http://www.w3.org/2000/svg" xmlns:xlink="http://www.w3.org/1999/xlink" x="0px" y="0px"
	 width="100%" viewBox="0 0 200 200" enable-background="new 0 0 200 200" xml:space="preserve">
<path fill="#991B24" opacity="1.000000" stroke="none" 
	d="
M93.000000,201.000000 
	C62.019073,201.000000 31.538143,201.000000 1.028608,201.000000 
	C1.028608,134.394104 1.028608,67.788193 1.028608,1.091139 
	C67.564110,1.091139 134.128387,1.091139 200.846329,1.091139 
	C200.846329,67.666397 200.846329,134.333160 200.846329,201.000000 
	C165.121811,201.000000 129.310898,201.000000 93.000000,201.000000 
M167.822830,78.554405 
	C167.413803,78.151863 167.004791,77.749313 166.995117,77.013901 
	C166.861725,77.125763 166.728317,77.237633 166.641602,76.632622 
	C165.405548,75.772568 164.169510,74.912514 162.984039,73.996468 
	C162.984039,73.996468 162.955734,74.066040 162.749725,73.350014 
	C154.349640,69.079727 145.647049,70.725632 136.487122,72.698860 
	C136.330185,73.503120 136.037781,74.307121 136.036255,75.111679 
	C136.004059,92.157097 135.984360,109.202652 136.040298,126.247917 
	C136.044403,127.498817 136.641144,128.747757 136.994141,130.007004 
	C136.994141,130.007004 136.994110,130.040146 137.248352,130.406647 
	C137.439835,130.637985 137.664001,130.831497 138.657059,131.033432 
	C141.110611,130.785690 143.564148,130.537949 146.670090,130.124619 
	C147.090485,129.977768 147.510880,129.830917 148.447861,129.753754 
	C148.608719,125.177612 148.841492,120.602592 148.913116,116.025055 
	C149.013870,109.586525 149.230194,109.634651 155.518387,108.841202 
	C158.244766,108.497200 160.782379,106.657288 163.464355,105.375725 
	C163.464355,105.375725 163.598923,105.376877 164.304642,105.502174 
	C165.055817,104.544495 165.806992,103.586815 166.847839,102.937119 
	C166.847839,102.937119 166.581192,102.609138 167.163727,102.470886 
	C167.530762,102.007339 167.897812,101.543793 168.893555,100.734459 
	C171.835892,94.981133 171.592712,89.029732 169.861237,82.428558 
	C169.518677,81.976624 169.176132,81.524681 168.910934,81.086143 
	C168.910934,81.086143 168.865128,81.149918 168.894043,80.531342 
	C168.532272,80.058731 168.170502,79.586121 167.918854,79.079727 
	C167.918854,79.079727 167.840103,79.163765 167.822830,78.554405 
M87.987892,77.018578 
	C87.987892,77.018578 87.946938,77.074257 87.958824,76.331146 
	C87.113396,72.590118 85.371269,70.057068 80.036888,71.128548 
	C77.713715,71.087616 75.385529,70.929085 73.068329,71.028046 
	C66.417427,71.312103 60.357555,75.387527 59.337811,81.393318 
	C57.273628,93.550323 59.022209,100.001945 70.322357,104.292130 
	C71.563942,104.763504 72.738113,105.427284 73.997856,105.833389 
	C79.153999,107.495552 80.795479,111.066727 80.222603,116.259171 
	C79.819801,119.910019 78.032318,121.775894 74.492538,121.776276 
	C70.948799,121.776649 68.905228,119.930763 68.845924,116.246384 
	C68.809700,113.996216 68.839233,111.745003 68.839233,109.437584 
	C65.064995,109.437584 62.129761,109.437584 59.035797,109.437584 
	C59.035797,112.978806 58.781876,116.292374 59.087406,119.553535 
	C59.773647,126.878242 70.929787,134.271759 79.560966,130.974152 
	C82.441795,129.711029 86.099823,129.164597 88.053200,127.046265 
	C93.266022,121.393204 92.216667,114.024361 91.748390,107.070381 
	C91.676430,106.001747 89.883698,105.048988 88.960159,104.045364 
	C88.960159,104.045364 88.922722,104.108521 88.966331,103.348915 
	C86.957161,100.503021 84.947983,97.657127 82.840813,94.672424 
	C84.799789,94.150673 86.904793,93.590027 89.395424,92.875702 
	C89.395424,92.875702 89.808678,92.914917 90.573662,92.718094 
	C93.344215,87.590996 92.541710,81.416237 88.799149,78.187813 
	C88.799149,78.187813 88.781578,78.300095 88.641968,77.786690 
	C88.401039,77.533142 88.160110,77.279602 87.987892,77.018578 
M48.692486,70.997879 
	C45.696342,71.245041 42.700203,71.492203 39.729141,72.108421 
	C39.513348,72.398956 39.297550,72.689484 38.556190,73.629150 
	C38.376820,74.429153 38.042496,75.228844 38.040932,76.029198 
	C38.008892,92.455421 37.992142,108.881821 38.058498,125.307831 
	C38.063519,126.549667 38.713345,127.788902 39.466351,129.500031 
	C42.931675,129.314163 46.397003,129.128296 50.419300,128.336533 
	C50.607800,127.540207 50.959061,126.744240 50.960800,125.947502 
	C50.996655,109.523758 51.016529,93.099823 50.948650,76.676308 
	C50.943565,75.445572 50.254986,74.217651 49.602146,72.733391 
	C49.495293,72.378815 49.388439,72.024246 48.692486,70.997879 
M99.946129,72.030098 
	C99.667290,72.337662 99.388451,72.645233 98.583817,73.608383 
	C98.398048,74.407692 98.051880,75.206650 98.050163,76.006355 
	C98.014893,92.453316 97.995560,108.900452 98.061829,125.347198 
	C98.066826,126.586563 98.737228,127.823242 99.607750,129.588882 
	C109.474495,129.588882 119.341232,129.588882 129.183701,129.588882 
	C129.183701,126.764938 129.183701,124.005333 129.183701,120.982841 
	C123.878906,120.982841 118.888565,121.162720 113.925728,120.872429 
	C112.451134,120.786163 109.911690,119.494827 109.816360,118.556870 
	C109.374626,114.210304 109.621094,109.793793 109.621094,105.115982 
	C115.997429,105.115982 121.292320,105.115982 126.792297,105.115982 
	C126.792297,102.055031 126.792297,99.301048 126.792297,95.988785 
	C121.021317,95.988785 115.456978,95.988785 109.885391,95.988785 
	C109.885391,90.713303 109.885391,86.002190 109.885391,80.928360 
	C116.498192,80.928360 122.757858,80.928360 129.240601,80.928360 
	C129.240601,77.617203 129.240601,74.672905 128.655350,71.019363 
	C119.463577,70.857613 110.271942,70.684349 101.079514,70.581223 
	C100.752525,70.577553 100.417747,71.267960 99.946129,72.030098 
z"/>
<path fill="#FBF4F4" opacity="1.000000" stroke="none" 
	d="
M89.808678,92.914917 
	C89.808678,92.914917 89.395424,92.875702 88.771866,92.841721 
	C85.582504,92.807747 83.016693,92.807747 80.129036,92.807747 
	C80.129036,89.525490 80.270264,87.191292 80.095047,84.881104 
	C79.848747,81.633781 77.661057,80.251770 74.670639,80.212479 
	C71.479919,80.170563 69.342651,81.534332 68.842140,85.038925 
	C68.152779,89.865898 70.138145,92.710495 74.430809,94.951134 
	C79.479271,97.586273 84.110542,101.020699 88.922722,104.108521 
	C88.922722,104.108521 88.960159,104.045364 88.987000,104.461212 
	C92.801552,120.731689 88.718758,127.560417 78.709000,130.884033 
	C70.929787,134.271759 59.773647,126.878242 59.087406,119.553535 
	C58.781876,116.292374 59.035797,112.978806 59.035797,109.437584 
	C62.129761,109.437584 65.064995,109.437584 68.839233,109.437584 
	C68.839233,111.745003 68.809700,113.996216 68.845924,116.246384 
	C68.905228,119.930763 70.948799,121.776649 74.492538,121.776276 
	C78.032318,121.775894 79.819801,119.910019 80.222603,116.259171 
	C80.795479,111.066727 79.153999,107.495552 73.997856,105.833389 
	C72.738113,105.427284 71.563942,104.763504 70.322357,104.292130 
	C59.022209,100.001945 57.273628,93.550323 59.337811,81.393318 
	C60.357555,75.387527 66.417427,71.312103 73.068329,71.028046 
	C75.385529,70.929085 77.713715,71.087616 80.594452,71.450623 
	C83.416992,73.539886 85.681961,75.307076 87.946938,77.074257 
	C87.946938,77.074257 87.987892,77.018578 87.991318,77.296829 
	C88.257027,77.816742 88.519302,78.058418 88.781578,78.300095 
	C88.781578,78.300095 88.799149,78.187813 88.836853,78.593033 
	C89.185928,83.637138 89.497307,88.276024 89.808678,92.914917 
z"/>
<path fill="#FAF4F3" opacity="1.000000" stroke="none" 
	d="
M129.240601,71.728607 
	C129.240601,74.672905 129.240601,77.617203 129.240601,80.928360 
	C122.757858,80.928360 116.498192,80.928360 109.885391,80.928360 
	C109.885391,86.002190 109.885391,90.713303 109.885391,95.988785 
	C115.456978,95.988785 121.021317,95.988785 126.792297,95.988785 
	C126.792297,99.301048 126.792297,102.055031 126.792297,105.115982 
	C121.292320,105.115982 115.997429,105.115982 109.621094,105.115982 
	C109.621094,109.793793 109.374626,114.210304 109.816360,118.556870 
	C109.911690,119.494827 112.451134,120.786163 113.925728,120.872429 
	C118.888565,121.162720 123.878906,120.982841 129.183701,120.982841 
	C129.183701,124.005333 129.183701,126.764938 129.183701,129.588882 
	C119.341232,129.588882 109.474495,129.588882 99.463760,128.861786 
	C99.249718,109.740738 99.179672,91.346764 99.109619,72.952797 
	C99.388451,72.645233 99.667290,72.337662 100.478470,71.892540 
	C110.420746,71.746193 119.830673,71.737404 129.240601,71.728607 
z"/>
<path fill="#FDF7F7" opacity="1.000000" stroke="none" 
	d="
M147.931274,129.684067 
	C147.510880,129.830917 147.090485,129.977768 145.913788,130.095551 
	C142.797195,130.018234 140.436905,129.969971 138.033417,129.459717 
	C137.990219,110.126801 137.990219,91.255867 137.990219,70.950035 
	C146.770645,72.045937 154.863190,73.055992 162.955734,74.066040 
	C162.955734,74.066040 162.984039,73.996468 163.114960,74.295029 
	C164.362213,75.512222 165.478561,76.430870 166.594894,77.349510 
	C166.728317,77.237633 166.861725,77.125763 166.869370,77.458214 
	C167.109116,78.322945 167.474609,78.743355 167.840103,79.163765 
	C167.840103,79.163765 167.918854,79.079727 167.888580,79.396667 
	C168.193909,80.192375 168.529526,80.671150 168.865128,81.149918 
	C168.865128,81.149918 168.910934,81.086143 168.850967,81.413017 
	C168.912842,82.163773 169.034683,82.587654 169.159866,83.477554 
	C168.657578,89.624153 168.151978,95.304718 167.383789,101.191162 
	C166.941193,101.801064 166.761185,102.205101 166.581192,102.609138 
	C166.581192,102.609138 166.847839,102.937119 166.442780,102.913330 
	C165.224777,103.718651 164.411850,104.547760 163.598923,105.376877 
	C163.598923,105.376877 163.464355,105.375725 163.083588,105.553795 
	C157.952240,106.796684 153.201660,107.861504 147.931274,109.042831 
	C147.931274,115.536827 147.931274,122.610451 147.931274,129.684067 
M158.560944,83.397453 
	C155.240341,82.339722 151.919739,81.281998 148.248383,80.112541 
	C148.248383,87.321594 148.248383,93.016739 148.248383,98.674377 
	C158.589264,99.392197 159.555298,98.505150 159.381561,88.615616 
	C159.355652,87.140434 159.091766,85.669434 158.560944,83.397453 
z"/>
<path fill="#F5E9E9" opacity="1.000000" stroke="none" 
	d="
M49.862328,128.942429 
	C46.397003,129.128296 42.931675,129.314163 39.370197,128.803711 
	C39.209949,109.731590 39.145851,91.355804 39.081757,72.980019 
	C39.297550,72.689484 39.513348,72.398956 40.203499,71.915024 
	C43.545765,71.704308 46.413677,71.686989 49.281590,71.669670 
	C49.388439,72.024246 49.495293,72.378815 49.640930,73.319733 
	C49.740589,92.251518 49.801456,110.596977 49.862328,128.942429 
z"/>
<path fill="#902832" opacity="1.000000" stroke="none" 
	d="
M88.944527,103.728714 
	C84.110542,101.020699 79.479271,97.586273 74.430809,94.951134 
	C70.138145,92.710495 68.152779,89.865898 68.842140,85.038925 
	C69.342651,81.534332 71.479919,80.170563 74.670639,80.212479 
	C77.661057,80.251770 79.848747,81.633781 80.095047,84.881104 
	C80.270264,87.191292 80.129036,89.525490 80.129036,92.807747 
	C83.016693,92.807747 85.582504,92.807747 88.579056,92.918564 
	C86.904793,93.590027 84.799789,94.150673 82.840813,94.672424 
	C84.947983,97.657127 86.957161,100.503021 88.944527,103.728714 
z"/>
<path fill="#8E4449" opacity="1.000000" stroke="none" 
	d="
M162.852722,73.708023 
	C154.863190,73.055992 146.770645,72.045937 137.990219,70.950035 
	C137.990219,91.255867 137.990219,110.126801 137.937897,129.555603 
	C137.885559,130.113464 137.694321,130.305038 137.523132,130.228607 
	C137.351929,130.152191 136.994110,130.040146 136.994110,130.040146 
	C136.994110,130.040146 136.994141,130.007004 136.975464,129.534241 
	C136.958481,110.051468 136.960175,91.041435 136.961853,72.031410 
	C145.647049,70.725632 154.349640,69.079727 162.852722,73.708023 
z"/>
<path fill="#902832" opacity="1.000000" stroke="none" 
	d="
M79.134979,130.929092 
	C88.718758,127.560417 92.801552,120.731689 88.950317,104.459854 
	C89.883698,105.048988 91.676430,106.001747 91.748390,107.070381 
	C92.216667,114.024361 93.266022,121.393204 88.053200,127.046265 
	C86.099823,129.164597 82.441795,129.711029 79.134979,130.929092 
z"/>
<path fill="#831922" opacity="1.000000" stroke="none" 
	d="
M136.724487,72.365135 
	C136.960175,91.041435 136.958481,110.051468 136.959579,129.529541 
	C136.641144,128.747757 136.044403,127.498817 136.040298,126.247917 
	C135.984360,109.202652 136.004059,92.157097 136.036255,75.111679 
	C136.037781,74.307121 136.330185,73.503120 136.724487,72.365135 
z"/>
<path fill="#7A141F" opacity="1.000000" stroke="none" 
	d="
M38.818974,73.304581 
	C39.145851,91.355804 39.209949,109.731590 39.168739,128.568359 
	C38.713345,127.788902 38.063519,126.549667 38.058498,125.307831 
	C37.992142,108.881821 38.008892,92.455421 38.040932,76.029198 
	C38.042496,75.228844 38.376820,74.429153 38.818974,73.304581 
z"/>
<path fill="#7B151D" opacity="1.000000" stroke="none" 
	d="
M98.846718,73.280594 
	C99.179672,91.346764 99.249718,109.740738 99.209045,128.597931 
	C98.737228,127.823242 98.066826,126.586563 98.061829,125.347198 
	C97.995560,108.900452 98.014893,92.453316 98.050163,76.006355 
	C98.051880,75.206650 98.398048,74.407692 98.846718,73.280594 
z"/>
<path fill="#7B1820" opacity="1.000000" stroke="none" 
	d="
M50.140812,128.639481 
	C49.801456,110.596977 49.740589,92.251518 49.781929,73.447250 
	C50.254986,74.217651 50.943565,75.445572 50.948650,76.676308 
	C51.016529,93.099823 50.996655,109.523758 50.960800,125.947502 
	C50.959061,126.744240 50.607800,127.540207 50.140812,128.639481 
z"/>
<path fill="#8E4449" opacity="1.000000" stroke="none" 
	d="
M148.189575,129.718903 
	C147.931274,122.610451 147.931274,115.536827 147.931274,109.042831 
	C153.201660,107.861504 157.952240,106.796684 163.054276,105.614349 
	C160.782379,106.657288 158.244766,108.497200 155.518387,108.841202 
	C149.230194,109.634651 149.013870,109.586525 148.913116,116.025055 
	C148.841492,120.602592 148.608719,125.177612 148.189575,129.718903 
z"/>
<path fill="#90343A" opacity="1.000000" stroke="none" 
	d="
M167.646378,100.985291 
	C168.151978,95.304718 168.657578,89.624153 169.369934,83.474716 
	C169.576660,83.005844 169.996643,82.994209 169.996643,82.994209 
	C171.592712,89.029732 171.835892,94.981133 168.426056,100.870361 
	C167.958572,101.006264 167.646378,100.985291 167.646378,100.985291 
z"/>
<path fill="#902832" opacity="1.000000" stroke="none" 
	d="
M90.191170,92.816505 
	C89.497307,88.276024 89.185928,83.637138 88.780045,78.594193 
	C92.541710,81.416237 93.344215,87.590996 90.191170,92.816505 
z"/>
<path fill="#81171E" opacity="1.000000" stroke="none" 
	d="
M128.947968,71.373985 
	C119.830673,71.737404 110.420746,71.746193 100.548714,71.694931 
	C100.417747,71.267960 100.752525,70.577553 101.079514,70.581223 
	C110.271942,70.684349 119.463577,70.857613 128.947968,71.373985 
z"/>
<path fill="#902832" opacity="1.000000" stroke="none" 
	d="
M87.952881,76.702698 
	C85.681961,75.307076 83.416992,73.539886 81.052155,71.451416 
	C85.371269,70.057068 87.113396,72.590118 87.952881,76.702698 
z"/>
<path fill="#8E4449" opacity="1.000000" stroke="none" 
	d="
M137.981094,130.017578 
	C140.436905,129.969971 142.797195,130.018234 145.587585,130.178345 
	C143.564148,130.537949 141.110611,130.785690 138.244965,130.835785 
	C137.832886,130.638123 137.694321,130.305038 137.694321,130.305038 
	C137.694321,130.305038 137.885559,130.113464 137.981094,130.017578 
z"/>
<path fill="#7B1820" opacity="1.000000" stroke="none" 
	d="
M48.987038,71.333771 
	C46.413677,71.686989 43.545765,71.704308 40.190956,71.730499 
	C42.700203,71.492203 45.696342,71.245041 48.987038,71.333771 
z"/>
<path fill="#8E4449" opacity="1.000000" stroke="none" 
	d="
M166.618256,76.991066 
	C165.478561,76.430870 164.362213,75.512222 163.089661,74.323013 
	C164.169510,74.912514 165.405548,75.772568 166.618256,76.991066 
z"/>
<path fill="#8E4449" opacity="1.000000" stroke="none" 
	d="
M163.951782,105.439522 
	C164.411850,104.547760 165.224777,103.718651 166.297943,102.759338 
	C165.806992,103.586815 165.055817,104.544495 163.951782,105.439522 
z"/>
<path fill="#8E4449" opacity="1.000000" stroke="none" 
	d="
M169.928940,82.711380 
	C169.996643,82.994209 169.576660,83.005844 169.366608,83.008690 
	C169.034683,82.587654 168.912842,82.163773 168.812286,81.406319 
	C169.176132,81.524681 169.518677,81.976624 169.928940,82.711380 
z"/>
<path fill="#8E4449" opacity="1.000000" stroke="none" 
	d="
M167.383789,101.191162 
	C167.646378,100.985291 167.958572,101.006264 168.111710,101.043259 
	C167.897812,101.543793 167.530762,102.007339 166.872467,102.540009 
	C166.761185,102.205101 166.941193,101.801064 167.383789,101.191162 
z"/>
<path fill="#8E4449" opacity="1.000000" stroke="none" 
	d="
M168.879578,80.840630 
	C168.529526,80.671150 168.193909,80.192375 167.833527,79.413559 
	C168.170502,79.586121 168.532272,80.058731 168.879578,80.840630 
z"/>
<path fill="#8E4449" opacity="1.000000" stroke="none" 
	d="
M167.831467,78.859085 
	C167.474609,78.743355 167.109116,78.322945 166.669693,77.624649 
	C167.004791,77.749313 167.413803,78.151863 167.831467,78.859085 
z"/>
<path fill="#831922" opacity="1.000000" stroke="none" 
	d="
M137.523132,130.228607 
	C137.694321,130.305038 137.832886,130.638123 137.876862,130.812637 
	C137.664001,130.831497 137.439835,130.637985 137.121231,130.223389 
	C136.994110,130.040146 137.351929,130.152191 137.523132,130.228607 
z"/>
<path fill="#902832" opacity="1.000000" stroke="none" 
	d="
M88.711777,78.043396 
	C88.519302,78.058418 88.257027,77.816742 87.956963,77.300568 
	C88.160110,77.279602 88.401039,77.533142 88.711777,78.043396 
z"/>
<path fill="#91212A" opacity="1.000000" stroke="none" 
	d="
M158.749451,83.796974 
	C159.091766,85.669434 159.355652,87.140434 159.381561,88.615616 
	C159.555298,98.505150 158.589264,99.392197 148.248383,98.674377 
	C148.248383,93.016739 148.248383,87.321594 148.248383,80.112541 
	C151.919739,81.281998 155.240341,82.339722 158.749451,83.796974 
z"/>
</svg>